<?xml version="1.0" standalone="no"?>
<!DOCTYPE svg PUBLIC "-//W3C//DTD SVG 20010904//EN"
 "http://www.w3.org/TR/2001/REC-SVG-20010904/DTD/svg10.dtd">
<svg version="1.0" xmlns="http://www.w3.org/2000/svg"
 width="1024.000000pt" height="1024.000000pt" viewBox="0 0 1024.000000 1024.000000"
 preserveAspectRatio="xMidYMid meet">

<g transform="translate(0.000000,1024.000000) scale(0.100000,-0.100000)"
fill="#000000" stroke="none">
<path d="M4710 9475 c-332 -32 -700 -112 -1030 -224 -728 -247 -1341 -659
-1905 -1281 -201 -223 -342 -412 -482 -650 -377 -640 -571 -1233 -634 -1935
-16 -181 -13 -695 5 -880 61 -629 247 -1210 562 -1756 404 -702 1004 -1293
1709 -1684 147 -81 161 -88 400 -192 580 -252 1148 -373 1751 -373 363 0 562
18 884 81 908 178 1721 620 2342 1274 292 307 442 500 615 790 316 531 513
1106 605 1768 20 146 23 202 23 577 0 425 -1 443 -46 735 -74 475 -291 1073
-557 1530 -241 415 -538 780 -892 1097 -141 126 -404 332 -505 395 -440 276
-666 389 -1005 505 -312 106 -589 168 -925 209 -222 27 -701 35 -915 14z m823
-180 c752 -80 1420 -330 2012 -754 228 -164 371 -285 581 -495 373 -374 586
-677 833 -1188 175 -360 311 -763 359 -1063 59 -362 67 -459 66 -800 0 -336
-9 -454 -60 -760 -73 -432 -194 -806 -389 -1195 -44 -87 -149 -277 -160 -288
-1 -2 -29 15 -61 38 l-59 41 -24 -28 c-13 -15 -37 -43 -53 -61 l-28 -33 -68
59 c-106 92 -155 132 -163 132 -4 0 -39 -51 -78 -113 -39 -62 -108 -158 -153
-213 -110 -133 -250 -284 -264 -284 -10 0 -305 303 -343 352 -11 15 -1 30 88
125 272 290 497 681 646 1121 16 48 33 82 41 82 8 0 76 -18 153 -39 77 -22
155 -43 174 -46 l35 -7 19 61 20 61 -36 9 c-20 6 -66 17 -103 27 -41 10 -68
22 -68 29 0 22 23 119 30 128 3 4 42 1 86 -8 126 -24 118 -28 139 71 10 49 14
89 9 94 -5 4 -105 18 -221 31 l-213 23 0 31 c0 16 5 73 11 125 6 52 13 199 17
325 l7 230 293 3 292 2 0 -79 c0 -77 -1 -79 -26 -85 -15 -4 -107 -6 -206 -5
-98 1 -180 0 -182 -2 -2 -2 -6 -90 -9 -195 l-5 -192 51 -6 c29 -3 128 -11 221
-18 l169 -12 -7 -86 c-23 -300 -128 -683 -281 -1024 -86 -190 -62 -182 -244
-76 -84 49 -156 90 -160 90 -3 0 -31 -53 -62 -118 -91 -188 -237 -411 -386
-590 l-63 -76 47 -48 c26 -26 50 -48 54 -48 12 0 119 116 182 198 65 84 184
263 236 355 18 31 35 57 38 57 3 0 86 -61 184 -135 98 -74 182 -135 188 -135
23 0 193 330 275 533 67 166 90 232 132 381 71 249 129 572 149 829 l7 87
-231 0 -231 0 0 83 0 84 122 6 c66 4 170 7 230 7 l108 0 0 205 0 206 -157 -6
c-200 -7 -723 -25 -744 -25 -12 0 -18 14 -23 63 -11 112 -46 279 -91 437 -71
248 -216 591 -236 559 -6 -10 -8 -6 -7 11 2 17 -1 24 -11 22 -7 -2 -22 4 -31
13 -17 15 -19 15 -28 -2 -6 -10 -14 -15 -18 -11 -4 4 -1 14 6 23 7 9 8 15 2
15 -6 0 -13 -6 -16 -12 -5 -10 -7 -10 -12 0 -5 10 -9 10 -20 1 -19 -16 -18
-33 2 -25 12 5 15 2 10 -9 -3 -9 22 -68 59 -139 161 -306 256 -619 294 -966
38 -349 19 -652 -64 -1030 -158 -719 -522 -1257 -1249 -1843 -87 -70 -163
-127 -169 -127 -7 1 -58 66 -115 145 l-103 145 -44 -30 -43 -30 141 -235 c78
-129 146 -235 151 -235 20 0 227 131 343 219 l126 95 21 -26 c259 -314 576
-709 576 -720 0 -22 -352 -264 -545 -373 -485 -275 -1066 -455 -1677 -520
-172 -18 -621 -20 -779 -5 -455 46 -830 137 -1245 304 -404 162 -764 366
-1058 600 -114 90 -362 314 -451 406 l-60 62 430 425 c492 487 814 795 826
791 4 -2 88 -74 187 -161 98 -87 256 -219 350 -295 94 -75 172 -140 174 -144
2 -4 -42 -78 -97 -164 -55 -87 -100 -159 -100 -162 0 -3 38 -27 85 -54 94 -54
337 -151 475 -191 149 -43 129 -56 192 128 31 88 59 164 64 169 7 7 311 -26
357 -40 9 -3 12 -103 12 -458 0 -250 -4 -457 -9 -460 -11 -7 -213 10 -336 30
-408 63 -953 271 -1322 505 -176 111 -408 293 -548 430 l-70 69 -203 -201
c-111 -111 -202 -206 -202 -212 0 -14 91 -107 103 -107 5 0 27 20 49 45 22 25
44 45 49 45 4 0 49 -34 98 -75 49 -41 93 -75 99 -75 5 0 49 45 98 100 49 55
93 100 98 100 5 0 59 -37 120 -83 147 -111 220 -161 343 -237 63 -39 100 -67
95 -74 -97 -155 -202 -332 -202 -342 0 -11 278 -160 284 -152 1 1 42 83 90
180 48 98 90 178 94 178 4 0 64 -25 132 -56 351 -159 806 -265 1180 -275 l75
-2 0 644 0 644 -115 11 c-151 15 -263 37 -380 73 -52 17 -95 29 -96 28 -1 -1
-35 -74 -74 -162 -40 -88 -75 -163 -79 -167 -6 -6 -149 47 -164 62 -14 12 352
731 393 774 4 4 55 -8 112 -29 153 -54 261 -75 438 -81 233 -10 441 24 593 95
36 17 70 31 75 31 7 0 96 -106 116 -138 5 -8 -5 -17 -31 -28 -21 -8 -52 -21
-68 -29 -100 -46 -310 -96 -462 -111 l-73 -7 0 -805 0 -805 158 6 c154 6 477
50 496 67 11 11 -35 180 -49 180 -5 0 -68 -9 -140 -19 -199 -29 -325 -37 -336
-20 -10 17 -12 888 -3 1100 l7 149 30 0 c113 0 446 95 612 175 144 69 144 48
-6 215 -228 252 -220 244 -241 231 -11 -7 -61 -34 -112 -61 l-92 -50 -70 78
c-106 118 -164 188 -164 199 0 5 49 58 109 116 l110 107 90 0 c61 0 91 -4 91
-11 0 -6 -33 -50 -72 -96 -119 -139 -112 -125 -79 -157 l29 -28 85 76 c47 42
90 76 95 76 12 0 221 -216 381 -393 68 -75 127 -137 131 -137 4 0 37 23 74 51
l67 50 -183 190 c-227 235 -338 356 -338 369 0 6 43 10 106 10 l106 0 247
-252 c136 -139 262 -269 279 -289 l31 -36 -77 -70 c-299 -270 -627 -436 -1014
-513 l-58 -11 0 -455 0 -455 63 7 c34 3 134 19 221 35 88 16 161 28 162 26 2
-3 81 -308 109 -425 13 -51 20 -94 16 -97 -36 -22 -385 -83 -606 -106 -152
-16 -546 -16 -690 0 -142 16 -431 66 -527 91 -121 32 -388 120 -457 151 -35
16 -69 29 -75 29 -9 0 -106 -168 -106 -185 0 -11 134 -61 360 -133 156 -50
402 -101 660 -137 157 -22 658 -32 828 -16 482 46 956 165 1341 338 120 53
323 159 406 211 127 79 295 194 295 202 0 5 -28 44 -63 87 -34 43 -114 144
-176 225 -62 82 -118 148 -123 148 -6 0 -29 -14 -52 -32 -22 -17 -43 -33 -45
-34 -3 -3 52 -84 186 -272 34 -48 63 -92 63 -98 0 -12 -128 -94 -147 -94 -6 0
-14 8 -18 17 -3 10 -56 93 -117 185 l-110 168 -42 -26 c-59 -36 -276 -141
-370 -180 -45 -18 -80 -36 -79 -41 1 -4 29 -88 62 -186 34 -98 61 -182 61
-187 0 -8 -132 -60 -153 -60 -11 0 -177 492 -180 535 -2 11 26 26 98 54 113
43 235 97 235 105 0 2 -16 28 -35 57 -19 30 -35 57 -35 61 0 16 -40 7 -107
-23 -131 -60 -279 -111 -431 -150 -84 -21 -159 -39 -166 -39 -8 0 -18 23 -25
63 -7 34 -15 72 -18 84 -4 19 2 23 74 38 171 36 354 96 508 165 l66 30 -40 71
c-21 40 -47 82 -58 95 l-18 23 -74 -35 c-137 -64 -448 -163 -461 -146 -15 17
-40 166 -29 173 6 3 36 12 67 18 83 18 222 67 343 121 344 153 759 477 1061
828 l95 112 -96 94 -96 95 55 56 c30 30 61 54 68 53 17 -4 290 -260 291 -274
1 -16 -211 -288 -305 -391 -87 -96 -293 -279 -409 -365 -44 -33 -91 -68 -104
-78 l-23 -18 56 -71 c31 -39 59 -71 62 -71 13 0 181 138 289 236 305 278 554
602 714 927 111 225 175 433 235 757 90 492 41 1039 -131 1465 -48 118 -114
255 -123 255 -3 0 -5 -512 -5 -1137 l0 -1138 -172 -3 -172 -2 -6 52 c-4 29 -5
416 -3 861 2 444 1 807 -2 807 -4 0 -24 -30 -47 -67 -448 -741 -571 -938 -585
-938 -20 0 -151 206 -564 884 -38 63 -74 116 -79 118 -7 2 -9 -297 -6 -856 l3
-858 -58 -6 c-33 -4 -110 -5 -172 -2 -62 3 -118 5 -123 5 -5 0 -10 454 -11
1151 l-3 1152 -55 28 c-30 15 -104 44 -163 64 -92 31 -111 34 -125 23 -9 -7
-72 -69 -139 -138 l-122 -125 -95 94 -95 94 -205 -197 c-113 -109 -210 -196
-215 -194 -18 6 -681 661 -681 672 0 6 25 33 55 59 51 45 56 47 76 34 11 -8
87 -80 169 -160 l148 -145 33 34 33 35 -250 250 -250 250 -93 -76 c-51 -41
-96 -75 -101 -75 -4 0 -79 73 -165 162 l-158 163 99 94 c111 106 247 217 374
305 47 33 87 61 89 62 2 2 -31 62 -73 134 -42 73 -76 133 -76 136 0 3 106 60
151 82 4 2 37 -51 74 -117 36 -67 71 -123 76 -127 12 -7 74 13 87 29 7 9 -2
47 -30 127 -61 175 -62 165 13 188 35 11 72 23 81 27 14 6 23 -14 59 -127 24
-73 43 -134 44 -136 1 -1 29 3 61 11 l59 13 -3 34 c-2 19 -22 123 -45 230 -49
227 -24 209 -207 153 -241 -73 -505 -195 -688 -319 -56 -38 -116 -76 -132 -85
l-30 -16 21 -27 c11 -14 19 -30 17 -35 -2 -4 -35 -35 -74 -67 -39 -33 -94 -81
-123 -107 l-53 -47 106 -111 c58 -62 106 -117 105 -123 -1 -6 -24 -32 -53 -58
l-52 -47 -172 172 -172 171 122 123 121 122 -25 33 c-14 18 -71 85 -127 148
-55 63 -101 118 -101 123 0 19 -31 1 -95 -58 l-69 -64 72 -74 c40 -41 72 -79
72 -85 0 -6 -23 -31 -51 -56 l-51 -46 -59 51 c-32 29 -95 92 -140 141 -68 75
-79 91 -68 104 24 30 236 202 322 264 48 34 94 59 101 57 7 -3 67 -71 132
-152 65 -81 127 -157 137 -169 l17 -21 25 28 c14 16 30 25 35 22 6 -3 10 5 10
19 0 14 -5 28 -10 31 -12 7 -220 305 -220 314 0 8 204 127 314 185 56 29 72
34 82 24 8 -9 234 -341 249 -365 0 -1 64 24 140 56 129 54 251 95 445 150 89
25 221 53 227 48 1 -2 13 -62 24 -133 12 -71 26 -134 31 -140 6 -8 21 -9 46
-4 20 4 63 11 95 15 l57 6 0 240 c0 224 -1 240 -17 235 -10 -2 -43 -8 -73 -11
-64 -8 -226 -40 -428 -85 -79 -18 -145 -30 -147 -28 -11 10 -85 270 -80 278 5
8 158 60 176 60 3 0 6 -14 7 -31 0 -17 5 -36 10 -42 5 -7 8 -22 7 -35 -1 -19
2 -22 24 -17 214 43 333 65 413 75 l97 12 3 77 3 76 91 3 92 3 1 -820 c2 -778
1 -820 -16 -829 -10 -5 -49 -12 -87 -16 -215 -21 -523 -137 -713 -268 -40 -28
-77 -55 -82 -62 -8 -10 62 -85 273 -295 156 -156 289 -293 296 -306 12 -23 8
-28 -69 -101 -44 -42 -81 -82 -81 -89 0 -7 23 -34 51 -60 l51 -47 96 94 c197
190 305 288 319 288 3 0 45 -38 92 -85 l87 -85 109 110 c85 85 116 110 136
110 38 0 187 -45 288 -86 150 -62 292 -156 496 -329 135 -115 221 -220 350
-430 173 -284 235 -376 245 -370 5 3 42 61 82 128 150 255 263 444 295 495 36
56 122 131 275 240 120 85 247 185 248 194 0 10 -112 149 -228 281 l-103 117
113 108 c62 60 203 191 312 293 427 395 541 501 544 509 2 4 -20 33 -49 64
l-52 57 -61 -58 c-203 -192 -920 -880 -965 -926 l-53 -55 136 -151 c74 -84
144 -165 155 -180 l20 -28 -126 -109 c-69 -60 -194 -165 -277 -234 -84 -69
-187 -155 -230 -192 -44 -38 -84 -68 -90 -68 -6 0 -36 28 -66 61 l-54 62 30
21 c77 56 452 358 577 466 18 15 -302 364 -447 487 -56 48 -107 92 -115 99
-12 11 -5 24 43 83 l58 71 27 -21 c14 -11 74 -65 133 -120 58 -54 109 -99 113
-99 4 0 26 17 49 38 85 74 615 582 816 780 l205 202 -90 86 c-49 48 -142 130
-205 183 -149 124 -433 328 -438 313 -2 -6 -11 -8 -20 -5 -13 4 -14 2 -4 -5 9
-6 11 -18 6 -36 -5 -20 -11 -25 -25 -21 -11 4 -19 2 -19 -5 0 -6 4 -9 9 -5 10
6 26 -13 18 -21 -2 -2 -17 0 -33 6 -22 9 -26 9 -17 -1 6 -6 9 -18 6 -25 -3 -8
0 -14 7 -14 6 0 8 5 5 10 -3 6 -1 10 4 10 14 0 14 -6 0 -32 -10 -18 -8 -24 7
-36 47 -36 -32 3 -151 74 -142 85 -136 68 -59 179 l45 64 -53 34 c-68 44 -222
127 -234 127 -5 0 -27 -41 -49 -91 -21 -50 -43 -93 -48 -96 -12 -8 -147 50
-147 63 0 7 14 51 32 98 21 59 28 90 21 97 -30 30 -423 151 -643 198 -226 48
-456 80 -642 88 l-138 6 0 -825 0 -826 98 -6 c202 -14 342 -36 479 -76 76 -22
143 -40 148 -40 6 0 22 36 37 79 l26 80 -27 10 c-106 40 -264 77 -411 96 -69
9 -147 19 -175 23 l-50 7 -3 643 c-2 568 0 643 13 648 35 14 443 -43 602 -83
50 -12 63 -19 59 -32 -14 -46 -49 -273 -76 -491 -55 -436 -45 -390 -78 -389
-62 2 -137 24 -135 39 1 8 14 119 28 245 14 127 32 283 42 348 13 95 14 120 3
127 -11 7 -234 40 -267 40 -10 0 -13 -101 -13 -470 l0 -470 23 -4 c12 -2 63
-10 112 -16 73 -10 274 -56 371 -85 17 -5 23 -1 29 22 25 98 78 343 105 488
67 350 61 330 95 327 47 -5 307 -99 455 -164 263 -116 498 -255 684 -405 60
-48 115 -92 122 -98 10 -7 33 10 92 68 42 42 82 77 88 77 5 0 33 -24 62 -53
l52 -53 -140 -139 c-78 -77 -142 -141 -143 -142 -2 -1 -28 20 -58 48 -168 155
-379 304 -587 418 -207 112 -495 234 -511 215 -9 -10 -54 -165 -49 -169 2 -2
23 -10 48 -18 129 -43 352 -146 490 -225 167 -96 357 -241 488 -372 l82 -84
-107 -110 c-60 -61 -152 -153 -205 -205 l-97 -94 -78 69 c-43 38 -87 77 -97
87 -11 9 -35 27 -53 40 -18 12 -33 26 -33 30 0 12 90 117 100 117 4 0 38 -25
76 -56 l68 -56 89 91 c90 91 90 91 71 113 -25 28 -306 238 -319 238 -11 0 -15
-6 -211 -382 -76 -147 -142 -268 -145 -268 -4 0 -32 16 -64 35 -32 19 -62 36
-69 38 -7 2 8 42 39 105 30 63 46 105 40 111 -6 5 -57 30 -115 56 -58 26 -113
51 -123 56 -12 7 -19 6 -22 -3 -54 -155 -110 -305 -116 -312 -4 -5 -58 9 -126
33 -210 73 -460 121 -635 121 l-78 0 0 -165 0 -165 -90 0 -90 0 0 1081 0 1082
-142 -7 c-672 -33 -1417 -284 -2025 -681 -219 -144 -511 -379 -630 -508 l-43
-46 217 -208 c807 -775 973 -937 973 -953 0 -6 -61 -73 -135 -151 -75 -78
-147 -156 -161 -174 l-25 -33 67 -63 c36 -35 72 -67 79 -71 8 -5 29 14 61 55
63 80 164 187 226 238 l48 41 65 -58 66 -57 -109 -111 c-60 -61 -152 -164
-206 -229 -54 -65 -104 -121 -112 -124 -9 -3 -52 29 -112 82 -125 113 -302
286 -302 295 0 12 62 84 189 219 64 68 118 131 120 140 2 10 -31 49 -92 106
-53 50 -228 216 -389 370 -161 154 -360 343 -441 419 l-148 139 -49 -54 -49
-54 57 -55 c32 -30 233 -218 447 -416 215 -199 409 -383 433 -408 l44 -46 -93
-103 c-96 -106 -229 -278 -229 -296 0 -10 105 -105 230 -206 118 -97 112 -88
108 -163 l-3 -67 612 -1 c337 0 615 -3 618 -6 3 -3 -25 -31 -62 -62 -89 -75
-157 -155 -218 -260 l-50 -85 -450 -3 -450 -3 0 -190 0 -190 445 -5 c380 -4
445 -7 442 -19 -18 -84 -17 -246 4 -353 l7 -38 -449 -2 -449 -3 -3 -217 -3
-218 464 0 463 0 21 -43 c44 -91 99 -165 180 -244 l85 -83 -48 -1 c-27 0 -383
-2 -792 -5 l-742 -4 -10 25 c-6 17 -10 440 -10 1156 0 897 -3 1129 -12 1129
-7 0 -26 -31 -43 -68 -16 -37 -41 -94 -56 -127 -15 -33 -37 -87 -48 -119 -11
-33 -24 -63 -28 -66 -7 -7 -76 16 -416 137 -70 25 -127 50 -127 55 0 16 52
131 65 146 10 11 24 9 81 -16 38 -17 118 -49 178 -72 104 -41 110 -42 123 -24
7 10 13 25 13 33 0 27 93 221 158 329 34 57 62 105 62 106 0 6 -170 146 -177
146 -19 0 -220 -321 -245 -390 -4 -12 -15 -10 -60 14 -30 16 -65 36 -78 46
l-23 17 53 94 c112 200 292 449 324 449 14 0 283 -212 298 -234 4 -6 28 12 57
44 l50 55 -52 50 c-184 176 -798 735 -807 735 -7 0 -170 -228 -170 -237 1 -5
20 -23 43 -41 l42 -32 43 46 42 46 68 -55 c37 -31 76 -64 87 -74 20 -18 147
-125 154 -130 2 -1 -30 -44 -71 -95 -109 -136 -197 -270 -306 -468 -76 -139
-252 -624 -234 -642 5 -5 37 -13 73 -19 217 -34 726 -158 722 -175 0 -5 -13
-67 -28 -139 -148 -718 -32 -1423 318 -1925 37 -52 86 -117 111 -145 l44 -50
34 31 c18 16 99 92 179 167 180 168 181 169 292 77 41 -33 79 -60 86 -60 7 0
9 -5 6 -10 -3 -6 -1 -10 4 -10 6 0 11 7 11 17 0 9 3 13 7 9 4 -3 13 4 21 16 7
13 11 16 8 6 -4 -14 3 -16 42 -15 26 0 37 2 25 4 -27 5 -28 11 -6 35 9 10 13
21 9 25 -4 4 -10 2 -14 -4 -5 -8 -10 -7 -18 2 -9 9 -6 12 16 13 20 0 30 -5 34
-20 4 -17 8 -19 19 -10 8 7 18 8 22 4 5 -4 5 1 2 11 -5 12 -2 17 7 15 7 -2 32
14 56 35 42 36 44 37 64 20 69 -60 86 -77 86 -88 0 -7 -45 -64 -100 -128 -55
-63 -100 -119 -100 -125 0 -12 161 -154 311 -273 l114 -91 29 34 c16 18 91
116 167 218 l138 185 -59 60 c-33 33 -60 65 -60 70 0 13 92 105 105 105 6 0
46 -32 90 -70 44 -39 114 -91 155 -115 87 -51 222 -115 243 -115 8 0 47 40 87
89 84 104 79 104 164 6 l47 -55 -41 -48 c-23 -26 -73 -84 -112 -128 l-70 -82
-113 38 c-62 21 -154 59 -203 85 -50 26 -96 44 -101 41 -6 -4 -35 -41 -65 -84
-30 -42 -120 -162 -201 -267 -81 -104 -150 -197 -155 -205 -7 -12 -15 -9 -48
13 -48 34 -458 386 -641 551 -74 66 -143 127 -153 134 -20 14 -31 6 -349 -283
-72 -66 -203 -183 -289 -260 -87 -77 -291 -259 -455 -405 -163 -146 -300 -266
-305 -268 -12 -4 -152 167 -244 297 -63 90 -206 323 -206 336 0 2 75 54 168
115 92 62 169 114 171 116 2 1 -17 40 -42 86 -138 254 -251 599 -306 928 -21
128 -46 358 -39 365 2 2 41 5 88 6 l85 2 3 -49 c3 -54 32 -307 35 -311 2 -1
52 4 112 12 60 8 109 13 110 12 1 -1 7 -27 14 -57 40 -162 126 -407 225 -632
l16 -36 -66 -37 c-37 -20 -71 -34 -77 -32 -6 2 -19 -5 -29 -15 -20 -20 -38
-24 -38 -8 0 6 8 10 19 10 40 0 31 55 -27 175 -29 58 -109 284 -131 368 -17
65 -21 72 -42 69 -47 -5 -48 -7 -34 -74 24 -112 136 -426 157 -439 5 -3 10
-10 10 -15 1 -21 93 -224 101 -224 11 0 79 32 136 64 35 20 67 35 71 34 8 -3
180 -259 180 -267 0 -9 -107 -91 -117 -91 -4 0 -30 32 -57 70 -27 39 -53 70
-58 70 -11 0 -76 -43 -265 -173 l-143 -98 62 -92 c34 -51 88 -126 121 -169
l61 -76 105 96 c58 54 162 146 231 206 147 129 240 217 240 229 0 4 -23 35
-50 68 -205 247 -398 651 -486 1018 -37 158 -61 301 -75 454 l-13 137 -381 0
c-210 0 -384 -2 -386 -4 -6 -6 7 -189 21 -301 51 -393 155 -772 294 -1069 25
-55 44 -101 42 -104 -10 -9 -139 -82 -146 -82 -9 0 -96 190 -136 295 -44 117
-101 295 -124 385 -222 874 -175 1858 127 2655 37 97 124 287 139 304 3 4 67
-32 251 -141 72 -43 136 -78 142 -78 6 0 22 21 37 48 57 100 109 181 180 279
41 56 74 105 74 109 0 10 -41 54 -51 54 -4 0 -29 -23 -56 -51 l-48 -50 -157
133 c-86 73 -157 136 -157 139 -2 13 158 247 234 344 524 671 1127 1132 1855
1420 222 87 277 106 440 151 316 87 542 127 910 158 96 8 512 -4 653 -19z
m-1791 -760 c70 -179 70 -165 -4 -199 -35 -16 -65 -31 -68 -33 -10 -6 -143
275 -137 290 6 16 124 67 147 64 9 -1 33 -51 62 -122z m-118 -935 c33 -12 66
-66 66 -108 0 -48 -52 -102 -107 -109 -39 -5 -46 -2 -77 29 -46 46 -53 79 -30
129 27 61 84 84 148 59z m1259 -574 l0 -79 -88 -19 c-49 -10 -126 -30 -171
-44 l-83 -27 30 -43 c16 -24 36 -44 43 -44 7 0 48 11 92 24 44 13 135 32 203
41 501 71 1037 -127 1434 -530 41 -41 60 -54 71 -48 8 4 64 57 126 117 l111
108 -48 51 c-42 45 -224 213 -264 244 -13 11 -25 1 -79 -67 -34 -44 -65 -80
-69 -80 -3 0 -38 18 -76 41 -242 142 -474 229 -722 269 l-73 12 0 79 0 79 28
0 c90 0 336 -56 483 -111 83 -30 228 -100 271 -131 l27 -19 57 78 c31 43 60
82 64 87 12 13 158 -78 274 -170 105 -84 376 -350 376 -370 0 -8 -372 -385
-424 -429 -7 -5 -24 -21 -39 -34 l-26 -24 -93 98 c-116 123 -269 259 -364 325
-94 65 -264 149 -379 188 -167 57 -239 67 -470 67 -199 0 -215 -2 -309 -28
-54 -15 -126 -38 -160 -52 -48 -19 -63 -22 -72 -12 -143 156 -274 313 -272
325 8 42 307 166 474 196 120 22 116 25 117 -68z m3003 -672 c-21 -20 -28 -17
-14 5 7 11 16 17 20 15 5 -3 2 -12 -6 -20z m-3908 -300 c-2 -1 -108 -5 -235
-9 -170 -6 -233 -4 -233 4 0 15 59 81 154 174 l81 78 118 -122 c64 -67 116
-123 115 -125z m1298 -213 c49 -10 117 -29 150 -43 69 -28 174 -95 174 -111 0
-7 -15 -24 -34 -39 -44 -35 -121 -138 -157 -210 -16 -32 -32 -58 -36 -58 -3 0
-36 12 -71 26 -128 51 -325 43 -452 -18 -88 -42 -213 -168 -258 -258 -126
-255 -81 -568 109 -751 110 -106 240 -159 390 -160 77 0 191 23 244 49 27 13
30 13 40 -3 55 -92 151 -232 185 -268 l41 -45 -34 -21 c-119 -73 -281 -113
-462 -113 -250 0 -429 61 -614 209 -158 126 -282 321 -338 528 -24 90 -27 118
-27 275 -1 214 15 285 104 465 73 149 138 235 249 331 222 192 520 272 797
215z m105 -1236 c-115 -115 -225 -229 -245 -252 l-38 -41 -241 245 c-133 135
-243 249 -245 253 -2 4 108 118 244 254 l247 245 243 -247 242 -247 -207 -210z
m-1611 650 c0 -13 -40 -15 -300 -15 -260 0 -300 2 -300 15 0 13 40 15 300 15
260 0 300 -2 300 -15z m2563 -648 c20 -40 47 -84 59 -98 13 -14 23 -29 23 -34
0 -13 85 -154 96 -161 5 -3 9 -12 9 -20 0 -16 -216 -254 -231 -254 -5 0 -9
131 -9 320 0 176 4 320 8 320 5 0 25 -33 45 -73z m757 -222 c0 -129 -2 -235
-5 -235 -5 0 -206 205 -209 212 -2 8 198 258 207 258 4 0 7 -106 7 -235z
m-186 -294 l158 -159 -103 -108 c-57 -60 -136 -143 -176 -184 l-72 -75 90 -94
c49 -52 89 -99 89 -104 0 -4 -25 -34 -56 -65 l-56 -57 -249 254 c-137 140
-248 261 -247 268 3 13 447 480 458 482 3 1 77 -70 164 -158z m-3364 -421 c0
-5 -4 -10 -10 -10 -5 0 -10 5 -10 10 0 6 5 10 10 10 6 0 10 -4 10 -10z m-80
-47 c0 -25 -15 -12 -17 14 -1 19 1 22 8 12 5 -8 9 -20 9 -26z m584 -152 c26
-27 31 -39 31 -82 0 -46 -4 -54 -39 -86 -34 -32 -43 -35 -82 -30 -56 6 -90 29
-108 72 -23 55 10 130 69 156 37 16 96 3 129 -30z m4432 -898 c67 -54 123
-102 123 -106 1 -12 -122 -167 -133 -167 -4 0 -31 20 -58 45 -28 25 -55 45
-62 45 -6 0 -27 -22 -46 -47 -82 -110 -480 -495 -508 -492 -4 0 -31 28 -61 62
-79 90 -326 361 -398 438 -35 36 -63 70 -63 76 0 6 27 34 59 62 l59 51 164
-172 c90 -95 185 -195 210 -222 l45 -50 39 31 c49 39 225 218 298 303 31 36
84 104 119 152 34 48 68 88 76 88 7 0 69 -44 137 -97z m-1536 -978 c40 -63 73
-122 74 -131 1 -11 -22 -28 -64 -50 -36 -18 -70 -33 -76 -34 -6 0 -23 24 -39
53 -15 28 -29 53 -30 55 -1 1 -38 -13 -81 -33 -43 -20 -83 -34 -90 -31 -10 4
-67 136 -61 142 7 7 274 141 283 142 7 1 44 -50 84 -113z"/>
<path d="M7260 8430 c0 -5 5 -10 10 -10 6 0 10 5 10 10 0 6 -4 10 -10 10 -5 0
-10 -4 -10 -10z"/>
<path d="M3288 8269 c-21 -11 -38 -24 -38 -29 0 -7 123 -179 157 -219 6 -8 78
38 75 49 -3 14 -146 220 -152 219 -3 0 -22 -9 -42 -20z"/>
<path d="M6256 7918 c-31 -108 -66 -243 -66 -256 0 -7 21 -22 48 -33 26 -12
93 -43 149 -70 56 -27 105 -49 108 -49 6 0 145 276 145 289 0 16 -324 171
-358 171 -6 0 -18 -24 -26 -52z"/>
<path d="M4620 7948 c-30 -5 -58 -13 -62 -16 -4 -4 -1 -52 7 -107 7 -55 16
-130 19 -166 l6 -66 -61 -17 c-355 -100 -624 -250 -934 -520 l-40 -35 46 -46
46 -47 104 82 c268 210 458 308 759 393 69 19 142 38 163 41 l37 7 0 254 c0
237 -1 255 -17 254 -10 -1 -43 -6 -73 -11z"/>
<path d="M8284 7404 c-49 -42 -106 -91 -126 -110 l-37 -33 57 -81 c32 -45 66
-94 75 -110 l17 -29 -61 -46 -60 -47 -16 22 c-31 44 -135 170 -140 170 -7 0
-28 -20 -275 -249 -153 -142 -175 -166 -165 -181 7 -9 33 -40 58 -69 l46 -52
34 32 c19 17 67 59 108 92 58 48 77 58 90 50 52 -32 286 -432 350 -598 15 -38
21 -46 26 -32 4 9 11 17 16 17 4 0 6 -7 3 -15 -7 -17 7 -20 22 -5 8 8 14 7 23
-3 9 -12 6 -14 -21 -13 -18 0 -33 -3 -33 -9 0 -5 3 -9 8 -8 4 2 7 -2 7 -7 0
-6 4 -10 10 -10 5 0 7 7 4 15 -4 8 -2 15 4 15 15 0 22 -26 9 -39 -8 -8 -8 -11
1 -11 7 0 12 4 12 10 0 5 7 7 15 4 8 -4 15 -1 15 5 0 6 -4 11 -10 11 -5 0 -10
5 -10 11 0 5 4 8 9 5 5 -4 7 3 4 14 -3 11 -10 20 -15 20 -5 0 -7 4 -3 10 5 9
-77 226 -110 290 l-15 29 47 28 c27 15 86 53 133 84 47 31 152 95 233 143 82
48 151 94 154 102 8 21 -76 157 -93 150 -17 -7 -213 -138 -392 -263 -72 -51
-137 -93 -142 -93 -5 0 -30 30 -55 68 -39 58 -43 68 -30 77 9 6 96 66 194 135
98 69 214 150 259 180 45 30 81 60 82 66 0 26 -194 324 -216 331 -6 2 -51 -31
-100 -73z"/>
<path d="M8632 6527 c-145 -88 -201 -126 -198 -137 3 -8 26 -71 51 -140 43
-115 111 -348 103 -355 -8 -7 -121 -45 -133 -45 -8 0 -15 6 -15 14 0 8 -5 16
-11 18 -9 3 -16 23 -19 58 0 12 -3 11 -11 -3 -5 -9 -7 -22 -3 -29 5 -7 3 -8
-5 -4 -7 5 -10 14 -7 22 3 8 1 14 -4 14 -6 0 -10 -6 -11 -12 0 -7 -2 -24 -5
-37 -4 -20 -2 -22 11 -11 13 11 13 8 4 -19 -6 -18 -15 -28 -22 -24 -7 4 -8 0
-3 -12 10 -26 51 -205 66 -288 7 -37 16 -69 20 -72 9 -5 532 11 658 21 l82 6
0 29 c0 106 -110 623 -138 651 -7 7 -191 -68 -208 -85 -3 -3 6 -47 20 -98 27
-102 58 -277 51 -289 -7 -11 -132 -33 -144 -25 -6 3 -11 14 -11 24 0 15 -91
384 -115 466 -5 17 4 25 52 47 236 110 293 139 293 147 0 11 -86 224 -106 263
-8 15 -20 28 -27 28 -6 0 -103 -55 -215 -123z"/>
<path d="M1301 6542 c-24 -45 -92 -228 -124 -337 -57 -187 -124 -499 -142
-656 l-7 -56 39 -6 c21 -4 62 -7 91 -7 57 0 544 -48 550 -54 2 -2 -6 -67 -17
-144 -12 -77 -21 -145 -21 -151 0 -7 39 -11 123 -11 177 0 163 12 159 -138 -4
-152 12 -426 34 -572 30 -205 117 -506 197 -685 80 -179 216 -403 310 -510
l44 -49 51 43 51 43 -78 97 c-185 227 -314 485 -406 811 -99 348 -120 828 -54
1195 12 66 22 131 23 144 1 28 36 19 -424 110 -146 28 -289 56 -317 62 -29 6
-54 13 -56 17 -5 9 64 285 96 389 14 43 48 136 76 207 29 71 51 130 49 131 -2
2 -56 35 -120 74 -105 63 -119 68 -127 53z"/>
<path d="M7743 6495 c0 -8 4 -15 9 -15 4 0 8 7 8 15 0 8 -4 15 -8 15 -5 0 -9
-7 -9 -15z"/>
<path d="M7770 6480 c0 -5 5 -10 11 -10 5 0 7 5 4 10 -3 6 -8 10 -11 10 -2 0
-4 -4 -4 -10z"/>
<path d="M7836 6444 c-9 -24 -2 -26 12 -4 7 11 8 20 3 20 -5 0 -12 -7 -15 -16z"/>
<path d="M7780 6430 c0 -3 4 -11 9 -19 7 -11 11 -10 19 6 9 15 7 19 -9 19 -10
0 -19 -3 -19 -6z"/>
<path d="M7860 6431 c0 -12 29 -23 41 -15 5 3 9 11 9 17 0 8 -3 8 -9 -2 -6 -9
-11 -10 -15 -2 -9 13 -26 15 -26 2z"/>
<path d="M7910 6400 c0 -5 5 -10 11 -10 5 0 7 5 4 10 -3 6 -8 10 -11 10 -2 0
-4 -4 -4 -10z"/>
<path d="M8276 6067 c3 -10 9 -15 12 -12 3 3 0 11 -7 18 -10 9 -11 8 -5 -6z"/>
<path d="M8330 6051 c0 -5 7 -12 16 -15 21 -8 24 -8 24 5 0 5 -4 7 -10 4 -5
-3 -10 -1 -10 4 0 6 -4 11 -10 11 -5 0 -10 -4 -10 -9z"/>
<path d="M8300 6039 c0 -5 5 -7 10 -4 6 3 10 8 10 11 0 2 -4 4 -10 4 -5 0 -10
-5 -10 -11z"/>
<path d="M8320 6020 c0 -5 -8 -7 -17 -3 -15 5 -16 3 -5 -8 6 -7 12 -23 12 -36
0 -14 6 -23 15 -23 8 0 15 5 15 10 0 6 -5 10 -11 10 -7 0 -9 11 -5 30 3 17 3
30 1 30 -3 0 -5 -4 -5 -10z"/>
<path d="M8336 6004 c-8 -21 -8 -24 5 -24 5 0 7 5 4 10 -3 6 -1 10 4 10 6 0
11 5 11 10 0 16 -17 12 -24 -6z"/>
<path d="M8375 6009 c-4 -6 -5 -12 -2 -15 2 -3 7 2 10 11 7 17 1 20 -8 4z"/>
<path d="M8325 5920 c3 -5 13 -10 21 -10 8 0 12 5 9 10 -3 6 -13 10 -21 10 -8
0 -12 -4 -9 -10z"/>
<path d="M8330 5890 c0 -5 5 -10 10 -10 6 0 10 5 10 10 0 6 -4 10 -10 10 -5 0
-10 -4 -10 -10z"/>
<path d="M1008 5304 c-5 -4 -8 -96 -8 -205 0 -148 3 -198 13 -201 16 -7 448 0
454 6 10 10 6 58 -7 81 -11 20 -11 27 0 40 7 8 10 18 6 22 -3 3 -6 1 -6 -7 0
-10 -3 -10 -16 1 -13 10 -17 10 -26 -2 -8 -11 -9 -10 -4 5 4 10 2 24 -4 31 -7
8 -4 17 11 31 22 19 22 19 9 -2 -12 -19 -11 -24 3 -39 15 -15 18 -15 23 -1 3
9 10 13 15 10 5 -3 6 2 3 11 -5 12 -10 13 -17 6 -6 -6 -15 -11 -20 -11 -14 0
24 34 41 36 25 4 29 16 35 91 5 62 3 73 -11 77 -9 2 -78 7 -152 10 -74 4 -180
9 -235 12 -55 3 -103 2 -107 -2z m386 -259 c-4 -8 -8 -15 -10 -15 -2 0 -4 7
-4 15 0 8 4 15 10 15 5 0 7 -7 4 -15z m6 -49 c0 -3 -4 -8 -10 -11 -5 -3 -10
-1 -10 4 0 6 5 11 10 11 6 0 10 -2 10 -4z m54 -22 c7 -19 2 -18 -19 6 -16 17
-16 20 -3 15 9 -4 19 -13 22 -21z"/>
<path d="M8351 3739 c-6 -13 -21 -52 -34 -87 l-25 -62 88 -45 c66 -32 91 -41
98 -32 16 21 75 178 69 184 -7 6 -132 53 -164 60 -17 4 -25 -1 -32 -18z"/>
<path d="M3497 3643 c-11 -11 -8 -20 7 -20 8 0 12 6 9 14 -6 15 -7 15 -16 6z"/>
<path d="M3405 3582 c-3 -3 -5 -12 -5 -21 0 -14 2 -14 10 -1 9 13 11 13 20 0
6 -9 10 -10 10 -3 0 6 8 13 18 15 10 3 4 6 -16 9 -17 3 -34 3 -37 1z"/>
<path d="M3425 3530 c3 -5 8 -10 11 -10 2 0 4 5 4 10 0 6 -5 10 -11 10 -5 0
-7 -4 -4 -10z"/>
<path d="M2958 2826 c-126 -122 -228 -224 -228 -227 0 -3 33 -35 74 -72 l73
-66 78 91 c43 50 130 152 193 227 63 75 122 144 130 154 14 16 13 20 -14 48
-16 17 -40 39 -54 49 l-25 17 -227 -221z"/>
<path d="M4525 2871 l-35 -71 25 -10 c93 -35 340 -79 448 -80 l47 0 0 70 c0
39 -2 70 -4 70 -47 0 -256 36 -322 56 -49 15 -97 28 -106 31 -13 4 -25 -12
-53 -66z"/>
<path d="M3220 2589 c-167 -200 -199 -243 -187 -252 302 -243 632 -423 1010
-554 196 -67 531 -143 633 -143 l34 0 -2 283 -3 282 -37 3 c-36 3 -36 3 -52
-50 -8 -29 -27 -104 -42 -166 -16 -69 -32 -116 -40 -119 -16 -6 -214 36 -340
73 -144 41 -284 97 -431 170 l-141 70 -22 -38 c-12 -21 -24 -38 -28 -37 -14 1
-175 114 -179 125 -2 6 16 35 40 65 44 54 237 333 237 342 0 3 -24 22 -52 43
-29 21 -83 62 -119 91 -36 29 -69 53 -72 53 -3 0 -96 -108 -207 -241z"/>
<path d="M2726 1773 l-88 -97 29 -24 c24 -19 264 -184 299 -204 11 -7 25 11
146 198 5 7 -28 36 -85 74 -51 35 -116 83 -145 107 -30 24 -57 43 -61 43 -4 0
-47 -44 -95 -97z"/>
<path d="M3895 6083 c-31 -7 -40 -21 -11 -16 15 3 29 9 32 14 3 5 4 8 2 8 -2
-1 -12 -3 -23 -6z"/>
<path d="M5040 5012 c-25 -26 -79 -82 -120 -124 l-74 -77 124 -126 124 -125
123 122 c68 68 123 127 123 133 0 13 -232 245 -245 245 -5 -1 -30 -22 -55 -48z"/>
<path d="M6660 3923 c-42 -43 -93 -97 -114 -119 l-38 -42 36 -38 36 -39 87 90
c49 50 101 105 117 123 l30 32 -34 35 c-19 19 -37 35 -40 35 -3 0 -39 -35 -80
-77z"/>
</g>
</svg>
