<?xml version="1.0" encoding="utf-8"?>
<!-- Generator: Adobe Illustrator 25.4.1, SVG Export Plug-In . SVG Version: 6.00 Build 0)  -->
<svg version="1.1" id="Calque_1" xmlns="http://www.w3.org/2000/svg" xmlns:xlink="http://www.w3.org/1999/xlink" x="0px" y="0px"
	 viewBox="0 0 1024 1024" style="enable-background:new 0 0 1024 1024;" xml:space="preserve">
<style type="text/css">
	.st0{fill:#FFFFFF;}
</style>
<g transform="translate(0.000000,1024.000000) scale(0.100000,-0.100000)">
	<path class="st0" d="M4710,9475c-332-32-700-112-1030-224c-728-247-1341-659-1905-1281c-201-223-342-412-482-650
		c-377-640-571-1233-634-1935c-16-181-13-695,5-880c61-629,247-1210,562-1756c404-702,1004-1293,1709-1684c147-81,161-88,400-192
		c580-252,1148-373,1751-373c363,0,562,18,884,81c908,178,1721,620,2342,1274c292,307,442,500,615,790c316,531,513,1106,605,1768
		c20,146,23,202,23,577c0,425-1,443-46,735c-74,475-291,1073-557,1530c-241,415-538,780-892,1097c-141,126-404,332-505,395
		c-440,276-666,389-1005,505c-312,106-589,168-925,209C5403,9488,4924,9496,4710,9475z M5533,9295c752-80,1420-330,2012-754
		c228-164,371-285,581-495c373-374,586-677,833-1188c175-360,311-763,359-1063c59-362,67-459,66-800c0-336-9-454-60-760
		c-73-432-194-806-389-1195c-44-87-149-277-160-288c-1-2-29,15-61,38l-59,41l-24-28c-13-15-37-43-53-61l-28-33l-68,59
		c-106,92-155,132-163,132c-4,0-39-51-78-113s-108-158-153-213c-110-133-250-284-264-284c-10,0-305,303-343,352c-11,15-1,30,88,125
		c272,290,497,681,646,1121c16,48,33,82,41,82s76-18,153-39c77-22,155-43,174-46l35-7l19,61l20,61l-36,9c-20,6-66,17-103,27
		c-41,10-68,22-68,29c0,22,23,119,30,128c3,4,42,1,86-8c126-24,118-28,139,71c10,49,14,89,9,94c-5,4-105,18-221,31l-213,23v31
		c0,16,5,73,11,125s13,199,17,325l7,230l293,3l292,2v-79c0-77-1-79-26-85c-15-4-107-6-206-5c-98,1-180,0-182-2s-6-90-9-195l-5-192
		l51-6c29-3,128-11,221-18l169-12l-7-86c-23-300-128-683-281-1024c-86-190-62-182-244-76c-84,49-156,90-160,90c-3,0-31-53-62-118
		c-91-188-237-411-386-590l-63-76l47-48c26-26,50-48,54-48c12,0,119,116,182,198c65,84,184,263,236,355c18,31,35,57,38,57
		s86-61,184-135s182-135,188-135c23,0,193,330,275,533c67,166,90,232,132,381c71,249,129,572,149,829l7,87h-231h-231v83v84l122,6
		c66,4,170,7,230,7h108v205v206l-157-6c-200-7-723-25-744-25c-12,0-18,14-23,63c-11,112-46,279-91,437c-71,248-216,591-236,559
		c-6-10-8-6-7,11c2,17-1,24-11,22c-7-2-22,4-31,13c-17,15-19,15-28-2c-6-10-14-15-18-11s-1,14,6,23s8,15,2,15s-13-6-16-12
		c-5-10-7-10-12,0s-9,10-20,1c-19-16-18-33,2-25c12,5,15,2,10-9c-3-9,22-68,59-139c161-306,256-619,294-966c38-349,19-652-64-1030
		c-158-719-522-1257-1249-1843c-87-70-163-127-169-127c-7,1-58,66-115,145l-103,145l-44-30l-43-30l141-235c78-129,146-235,151-235
		c20,0,227,131,343,219l126,95l21-26c259-314,576-709,576-720c0-22-352-264-545-373c-485-275-1066-455-1677-520
		c-172-18-621-20-779-5c-455,46-830,137-1245,304c-404,162-764,366-1058,600c-114,90-362,314-451,406l-60,62l430,425
		c492,487,814,795,826,791c4-2,88-74,187-161c98-87,256-219,350-295c94-75,172-140,174-144s-42-78-97-164c-55-87-100-159-100-162
		s38-27,85-54c94-54,337-151,475-191c149-43,129-56,192,128c31,88,59,164,64,169c7,7,311-26,357-40c9-3,12-103,12-458
		c0-250-4-457-9-460c-11-7-213,10-336,30c-408,63-953,271-1322,505c-176,111-408,293-548,430l-70,69l-203-201
		c-111-111-202-206-202-212c0-14,91-107,103-107c5,0,27,20,49,45s44,45,49,45c4,0,49-34,98-75s93-75,99-75c5,0,49,45,98,100
		s93,100,98,100s59-37,120-83c147-111,220-161,343-237c63-39,100-67,95-74c-97-155-202-332-202-342c0-11,278-160,284-152
		c1,1,42,83,90,180c48,98,90,178,94,178s64-25,132-56c351-159,806-265,1180-275l75-2v644v644l-115,11c-151,15-263,37-380,73
		c-52,17-95,29-96,28s-35-74-74-162c-40-88-75-163-79-167c-6-6-149,47-164,62c-14,12,352,731,393,774c4,4,55-8,112-29
		c153-54,261-75,438-81c233-10,441,24,593,95c36,17,70,31,75,31c7,0,96-106,116-138c5-8-5-17-31-28c-21-8-52-21-68-29
		c-100-46-310-96-462-111l-73-7v-805v-805l158,6c154,6,477,50,496,67c11,11-35,180-49,180c-5,0-68-9-140-19c-199-29-325-37-336-20
		c-10,17-12,888-3,1100l7,149h30c113,0,446,95,612,175c144,69,144,48-6,215c-228,252-220,244-241,231c-11-7-61-34-112-61l-92-50
		l-70,78c-106,118-164,188-164,199c0,5,49,58,109,116l110,107h90c61,0,91-4,91-11c0-6-33-50-72-96c-119-139-112-125-79-157l29-28
		l85,76c47,42,90,76,95,76c12,0,221-216,381-393c68-75,127-137,131-137s37,23,74,51l67,50l-183,190c-227,235-338,356-338,369
		c0,6,43,10,106,10h106l247-252c136-139,262-269,279-289l31-36l-77-70c-299-270-627-436-1014-513l-58-11v-455v-455l63,7
		c34,3,134,19,221,35c88,16,161,28,162,26c2-3,81-308,109-425c13-51,20-94,16-97c-36-22-385-83-606-106c-152-16-546-16-690,0
		c-142,16-431,66-527,91c-121,32-388,120-457,151c-35,16-69,29-75,29c-9,0-106-168-106-185c0-11,134-61,360-133
		c156-50,402-101,660-137c157-22,658-32,828-16c482,46,956,165,1341,338c120,53,323,159,406,211c127,79,295,194,295,202
		c0,5-28,44-63,87c-34,43-114,144-176,225c-62,82-118,148-123,148c-6,0-29-14-52-32c-22-17-43-33-45-34c-3-3,52-84,186-272
		c34-48,63-92,63-98c0-12-128-94-147-94c-6,0-14,8-18,17c-3,10-56,93-117,185l-110,168l-42-26c-59-36-276-141-370-180
		c-45-18-80-36-79-41c1-4,29-88,62-186c34-98,61-182,61-187c0-8-132-60-153-60c-11,0-177,492-180,535c-2,11,26,26,98,54
		c113,43,235,97,235,105c0,2-16,28-35,57c-19,30-35,57-35,61c0,16-40,7-107-23c-131-60-279-111-431-150c-84-21-159-39-166-39
		c-8,0-18,23-25,63c-7,34-15,72-18,84c-4,19,2,23,74,38c171,36,354,96,508,165l66,30l-40,71c-21,40-47,82-58,95l-18,23l-74-35
		c-137-64-448-163-461-146c-15,17-40,166-29,173c6,3,36,12,67,18c83,18,222,67,343,121c344,153,759,477,1061,828l95,112l-96,94
		l-96,95l55,56c30,30,61,54,68,53c17-4,290-260,291-274c1-16-211-288-305-391c-87-96-293-279-409-365c-44-33-91-68-104-78l-23-18
		l56-71c31-39,59-71,62-71c13,0,181,138,289,236c305,278,554,602,714,927c111,225,175,433,235,757c90,492,41,1039-131,1465
		c-48,118-114,255-123,255c-3,0-5-512-5-1137V3875l-172-3l-172-2l-6,52c-4,29-5,416-3,861c2,444,1,807-2,807c-4,0-24-30-47-67
		c-448-741-571-938-585-938c-20,0-151,206-564,884c-38,63-74,116-79,118c-7,2-9-297-6-856l3-858l-58-6c-33-4-110-5-172-2
		s-118,5-123,5s-10,454-11,1151l-3,1152l-55,28c-30,15-104,44-163,64c-92,31-111,34-125,23c-9-7-72-69-139-138l-122-125l-95,94
		l-95,94l-205-197c-113-109-210-196-215-194c-18,6-681,661-681,672c0,6,25,33,55,59c51,45,56,47,76,34c11-8,87-80,169-160l148-145
		l33,34l33,35l-250,250l-250,250l-93-76c-51-41-96-75-101-75c-4,0-79,73-165,162l-158,163l99,94c111,106,247,217,374,305
		c47,33,87,61,89,62c2,2-31,62-73,134c-42,73-76,133-76,136s106,60,151,82c4,2,37-51,74-117c36-67,71-123,76-127c12-7,74,13,87,29
		c7,9-2,47-30,127c-61,175-62,165,13,188c35,11,72,23,81,27c14,6,23-14,59-127c24-73,43-134,44-136c1-1,29,3,61,11l59,13l-3,34
		c-2,19-22,123-45,230c-49,227-24,209-207,153c-241-73-505-195-688-319c-56-38-116-76-132-85l-30-16l21-27c11-14,19-30,17-35
		c-2-4-35-35-74-67c-39-33-94-81-123-107l-53-47l106-111c58-62,106-117,105-123s-24-32-53-58l-52-47l-172,172l-172,171l122,123
		l121,122l-25,33c-14,18-71,85-127,148c-55,63-101,118-101,123c0,19-31,1-95-58l-69-64l72-74c40-41,72-79,72-85s-23-31-51-56l-51-46
		l-59,51c-32,29-95,92-140,141c-68,75-79,91-68,104c24,30,236,202,322,264c48,34,94,59,101,57c7-3,67-71,132-152s127-157,137-169
		l17-21l25,28c14,16,30,25,35,22c6-3,10,5,10,19s-5,28-10,31c-12,7-220,305-220,314c0,8,204,127,314,185c56,29,72,34,82,24
		c8-9,234-341,249-365c0-1,64,24,140,56c129,54,251,95,445,150c89,25,221,53,227,48c1-2,13-62,24-133c12-71,26-134,31-140
		c6-8,21-9,46-4c20,4,63,11,95,15l57,6v240c0,224-1,240-17,235c-10-2-43-8-73-11c-64-8-226-40-428-85c-79-18-145-30-147-28
		c-11,10-85,270-80,278s158,60,176,60c3,0,6-14,7-31c0-17,5-36,10-42c5-7,8-22,7-35c-1-19,2-22,24-17c214,43,333,65,413,75l97,12
		l3,77l3,76l91,3l92,3l1-820c2-778,1-820-16-829c-10-5-49-12-87-16c-215-21-523-137-713-268c-40-28-77-55-82-62c-8-10,62-85,273-295
		c156-156,289-293,296-306c12-23,8-28-69-101c-44-42-81-82-81-89s23-34,51-60l51-47l96,94c197,190,305,288,319,288c3,0,45-38,92-85
		l87-85l109,110c85,85,116,110,136,110c38,0,187-45,288-86c150-62,292-156,496-329c135-115,221-220,350-430c173-284,235-376,245-370
		c5,3,42,61,82,128c150,255,263,444,295,495c36,56,122,131,275,240c120,85,247,185,248,194c0,10-112,149-228,281l-103,117l113,108
		c62,60,203,191,312,293c427,395,541,501,544,509c2,4-20,33-49,64l-52,57l-61-58c-203-192-920-880-965-926l-53-55l136-151
		c74-84,144-165,155-180l20-28l-126-109c-69-60-194-165-277-234c-84-69-187-155-230-192c-44-38-84-68-90-68s-36,28-66,61l-54,62
		l30,21c77,56,452,358,577,466c18,15-302,364-447,487c-56,48-107,92-115,99c-12,11-5,24,43,83l58,71l27-21c14-11,74-65,133-120
		c58-54,109-99,113-99s26,17,49,38c85,74,615,582,816,780l205,202l-90,86c-49,48-142,130-205,183c-149,124-433,328-438,313
		c-2-6-11-8-20-5c-13,4-14,2-4-5c9-6,11-18,6-36c-5-20-11-25-25-21c-11,4-19,2-19-5c0-6,4-9,9-5c10,6,26-13,18-21c-2-2-17,0-33,6
		c-22,9-26,9-17-1c6-6,9-18,6-25c-3-8,0-14,7-14c6,0,8,5,5,10c-3,6-1,10,4,10c14,0,14-6,0-32c-10-18-8-24,7-36c47-36-32,3-151,74
		c-142,85-136,68-59,179l45,64l-53,34c-68,44-222,127-234,127c-5,0-27-41-49-91c-21-50-43-93-48-96c-12-8-147,50-147,63
		c0,7,14,51,32,98c21,59,28,90,21,97c-30,30-423,151-643,198c-226,48-456,80-642,88l-138,6v-825v-826l98-6c202-14,342-36,479-76
		c76-22,143-40,148-40c6,0,22,36,37,79l26,80l-27,10c-106,40-264,77-411,96c-69,9-147,19-175,23l-50,7l-3,643c-2,568,0,643,13,648
		c35,14,443-43,602-83c50-12,63-19,59-32c-14-46-49-273-76-491c-55-436-45-390-78-389c-62,2-137,24-135,39c1,8,14,119,28,245
		c14,127,32,283,42,348c13,95,14,120,3,127s-234,40-267,40c-10,0-13-101-13-470v-470l23-4c12-2,63-10,112-16c73-10,274-56,371-85
		c17-5,23-1,29,22c25,98,78,343,105,488c67,350,61,330,95,327c47-5,307-99,455-164c263-116,498-255,684-405c60-48,115-92,122-98
		c10-7,33,10,92,68c42,42,82,77,88,77c5,0,33-24,62-53l52-53l-140-139c-78-77-142-141-143-142c-2-1-28,20-58,48
		c-168,155-379,304-587,418c-207,112-495,234-511,215c-9-10-54-165-49-169c2-2,23-10,48-18c129-43,352-146,490-225
		c167-96,357-241,488-372l82-84l-107-110c-60-61-152-153-205-205l-97-94l-78,69c-43,38-87,77-97,87c-11,9-35,27-53,40
		c-18,12-33,26-33,30c0,12,90,117,100,117c4,0,38-25,76-56l68-56l89,91c90,91,90,91,71,113c-25,28-306,238-319,238
		c-11,0-15-6-211-382c-76-147-142-268-145-268c-4,0-32,16-64,35s-62,36-69,38s8,42,39,105c30,63,46,105,40,111c-6,5-57,30-115,56
		s-113,51-123,56c-12,7-19,6-22-3c-54-155-110-305-116-312c-4-5-58,9-126,33c-210,73-460,121-635,121h-78v-165v-165h-90h-90v1081
		v1082l-142-7c-672-33-1417-284-2025-681c-219-144-511-379-630-508l-43-46l217-208c807-775,973-937,973-953c0-6-61-73-135-151
		c-75-78-147-156-161-174l-25-33l67-63c36-35,72-67,79-71c8-5,29,14,61,55c63,80,164,187,226,238l48,41l65-58l66-57l-109-111
		c-60-61-152-164-206-229s-104-121-112-124c-9-3-52,29-112,82c-125,113-302,286-302,295c0,12,62,84,189,219c64,68,118,131,120,140
		c2,10-31,49-92,106c-53,50-228,216-389,370s-360,343-441,419l-148,139l-49-54l-49-54l57-55c32-30,233-218,447-416
		c215-199,409-383,433-408l44-46l-93-103c-96-106-229-278-229-296c0-10,105-105,230-206c118-97,112-88,108-163l-3-67l612-1
		c337,0,615-3,618-6s-25-31-62-62c-89-75-157-155-218-260l-50-85l-450-3l-450-3v-190v-190l445-5c380-4,445-7,442-19
		c-18-84-17-246,4-353l7-38l-449-2l-449-3l-3-217l-3-218h464h463l21-43c44-91,99-165,180-244l85-83l-48-1c-27,0-383-2-792-5l-742-4
		l-10,25c-6,17-10,440-10,1156c0,897-3,1129-12,1129c-7,0-26-31-43-68c-16-37-41-94-56-127s-37-87-48-119c-11-33-24-63-28-66
		c-7-7-76,16-416,137c-70,25-127,50-127,55c0,16,52,131,65,146c10,11,24,9,81-16c38-17,118-49,178-72c104-41,110-42,123-24
		c7,10,13,25,13,33c0,27,93,221,158,329c34,57,62,105,62,106c0,6-170,146-177,146c-19,0-220-321-245-390c-4-12-15-10-60,14
		c-30,16-65,36-78,46l-23,17l53,94c112,200,292,449,324,449c14,0,283-212,298-234c4-6,28,12,57,44l50,55l-52,50
		c-184,176-798,735-807,735c-7,0-170-228-170-237c1-5,20-23,43-41l42-32l43,46l42,46l68-55c37-31,76-64,87-74c20-18,147-125,154-130
		c2-1-30-44-71-95c-109-136-197-270-306-468c-76-139-252-624-234-642c5-5,37-13,73-19c217-34,726-158,722-175c0-5-13-67-28-139
		c-148-718-32-1423,318-1925c37-52,86-117,111-145l44-50l34,31c18,16,99,92,179,167c180,168,181,169,292,77c41-33,79-60,86-60
		s9-5,6-10c-3-6-1-10,4-10c6,0,11,7,11,17c0,9,3,13,7,9c4-3,13,4,21,16c7,13,11,16,8,6c-4-14,3-16,42-15c26,0,37,2,25,4
		c-27,5-28,11-6,35c9,10,13,21,9,25s-10,2-14-4c-5-8-10-7-18,2c-9,9-6,12,16,13c20,0,30-5,34-20c4-17,8-19,19-10c8,7,18,8,22,4
		c5-4,5,1,2,11c-5,12-2,17,7,15c7-2,32,14,56,35c42,36,44,37,64,20c69-60,86-77,86-88c0-7-45-64-100-128c-55-63-100-119-100-125
		c0-12,161-154,311-273l114-91l29,34c16,18,91,116,167,218l138,185l-59,60c-33,33-60,65-60,70c0,13,92,105,105,105c6,0,46-32,90-70
		c44-39,114-91,155-115c87-51,222-115,243-115c8,0,47,40,87,89c84,104,79,104,164,6l47-55l-41-48c-23-26-73-84-112-128l-70-82
		l-113,38c-62,21-154,59-203,85c-50,26-96,44-101,41c-6-4-35-41-65-84c-30-42-120-162-201-267c-81-104-150-197-155-205
		c-7-12-15-9-48,13c-48,34-458,386-641,551c-74,66-143,127-153,134c-20,14-31,6-349-283c-72-66-203-183-289-260
		c-87-77-291-259-455-405c-163-146-300-266-305-268c-12-4-152,167-244,297c-63,90-206,323-206,336c0,2,75,54,168,115
		c92,62,169,114,171,116c2,1-17,40-42,86c-138,254-251,599-306,928c-21,128-46,358-39,365c2,2,41,5,88,6l85,2l3-49
		c3-54,32-307,35-311c2-1,52,4,112,12s109,13,110,12s7-27,14-57c40-162,126-407,225-632l16-36l-66-37c-37-20-71-34-77-32
		s-19-5-29-15c-20-20-38-24-38-8c0,6,8,10,19,10c40,0,31,55-27,175c-29,58-109,284-131,368c-17,65-21,72-42,69c-47-5-48-7-34-74
		c24-112,136-426,157-439c5-3,10-10,10-15c1-21,93-224,101-224c11,0,79,32,136,64c35,20,67,35,71,34c8-3,180-259,180-267
		c0-9-107-91-117-91c-4,0-30,32-57,70c-27,39-53,70-58,70c-11,0-76-43-265-173l-143-98l62-92c34-51,88-126,121-169l61-76l105,96
		c58,54,162,146,231,206c147,129,240,217,240,229c0,4-23,35-50,68c-205,247-398,651-486,1018c-37,158-61,301-75,454l-13,137h-381
		c-210,0-384-2-386-4c-6-6,7-189,21-301c51-393,155-772,294-1069c25-55,44-101,42-104c-10-9-139-82-146-82c-9,0-96,190-136,295
		c-44,117-101,295-124,385c-222,874-175,1858,127,2655c37,97,124,287,139,304c3,4,67-32,251-141c72-43,136-78,142-78s22,21,37,48
		c57,100,109,181,180,279c41,56,74,105,74,109c0,10-41,54-51,54c-4,0-29-23-56-51l-48-50l-157,133c-86,73-157,136-157,139
		c-2,13,158,247,234,344c524,671,1127,1132,1855,1420c222,87,277,106,440,151c316,87,542,127,910,158C4976,9322,5392,9310,5533,9295
		z M3742,8535c70-179,70-165-4-199c-35-16-65-31-68-33c-10-6-143,275-137,290c6,16,124,67,147,64C3689,8656,3713,8606,3742,8535z
		 M3624,7600c33-12,66-66,66-108c0-48-52-102-107-109c-39-5-46-2-77,29c-46,46-53,79-30,129C3503,7602,3560,7625,3624,7600z
		 M4883,7026v-79l-88-19c-49-10-126-30-171-44l-83-27l30-43c16-24,36-44,43-44s48,11,92,24s135,32,203,41c501,71,1037-127,1434-530
		c41-41,60-54,71-48c8,4,64,57,126,117l111,108l-48,51c-42,45-224,213-264,244c-13,11-25,1-79-67c-34-44-65-80-69-80
		c-3,0-38,18-76,41c-242,142-474,229-722,269l-73,12v79v79h28c90,0,336-56,483-111c83-30,228-100,271-131l27-19l57,78
		c31,43,60,82,64,87c12,13,158-78,274-170c105-84,376-350,376-370c0-8-372-385-424-429c-7-5-24-21-39-34l-26-24l-93,98
		c-116,123-269,259-364,325c-94,65-264,149-379,188c-167,57-239,67-470,67c-199,0-215-2-309-28c-54-15-126-38-160-52
		c-48-19-63-22-72-12c-143,156-274,313-272,325c8,42,307,166,474,196C4886,7116,4882,7119,4883,7026z M7886,6354c-21-20-28-17-14,5
		c7,11,16,17,20,15C7897,6371,7894,6362,7886,6354z M3978,6054c-2-1-108-5-235-9c-170-6-233-4-233,4c0,15,59,81,154,174l81,78
		l118-122C3927,6112,3979,6056,3978,6054z M5276,5841c49-10,117-29,150-43c69-28,174-95,174-111c0-7-15-24-34-39
		c-44-35-121-138-157-210c-16-32-32-58-36-58c-3,0-36,12-71,26c-128,51-325,43-452-18c-88-42-213-168-258-258
		c-126-255-81-568,109-751c110-106,240-159,390-160c77,0,191,23,244,49c27,13,30,13,40-3c55-92,151-232,185-268l41-45l-34-21
		c-119-73-281-113-462-113c-250,0-429,61-614,209c-158,126-282,321-338,528c-24,90-27,118-27,275c-1,214,15,285,104,465
		c73,149,138,235,249,331C4701,5818,4999,5898,5276,5841z M5381,4605c-115-115-225-229-245-252l-38-41l-241,245
		c-133,135-243,249-245,253s108,118,244,254l247,245l243-247l242-247L5381,4605z M3770,5255c0-13-40-15-300-15s-300,2-300,15
		s40,15,300,15S3770,5268,3770,5255z M6333,4607c20-40,47-84,59-98c13-14,23-29,23-34c0-13,85-154,96-161c5-3,9-12,9-20
		c0-16-216-254-231-254c-5,0-9,131-9,320c0,176,4,320,8,320C6293,4680,6313,4647,6333,4607z M7090,4385c0-129-2-235-5-235
		c-5,0-206,205-209,212c-2,8,198,258,207,258C7087,4620,7090,4514,7090,4385z M6904,4091l158-159l-103-108c-57-60-136-143-176-184
		l-72-75l90-94c49-52,89-99,89-104c0-4-25-34-56-65l-56-57l-249,254c-137,140-248,261-247,268c3,13,447,480,458,482
		C6743,4250,6817,4179,6904,4091z M3540,3670c0-5-4-10-10-10c-5,0-10,5-10,10c0,6,5,10,10,10C3536,3680,3540,3676,3540,3670z
		 M3460,3623c0-25-15-12-17,14c-1,19,1,22,8,12C3456,3641,3460,3629,3460,3623z M4044,3471c26-27,31-39,31-82c0-46-4-54-39-86
		c-34-32-43-35-82-30c-56,6-90,29-108,72c-23,55,10,130,69,156C3952,3517,4011,3504,4044,3471z M8476,2573c67-54,123-102,123-106
		c1-12-122-167-133-167c-4,0-31,20-58,45c-28,25-55,45-62,45c-6,0-27-22-46-47c-82-110-480-495-508-492c-4,0-31,28-61,62
		c-79,90-326,361-398,438c-35,36-63,70-63,76s27,34,59,62l59,51l164-172c90-95,185-195,210-222l45-50l39,31c49,39,225,218,298,303
		c31,36,84,104,119,152c34,48,68,88,76,88C8346,2670,8408,2626,8476,2573z M6940,1595c40-63,73-122,74-131c1-11-22-28-64-50
		c-36-18-70-33-76-34c-6,0-23,24-39,53c-15,28-29,53-30,55c-1,1-38-13-81-33s-83-34-90-31c-10,4-67,136-61,142c7,7,274,141,283,142
		C6863,1709,6900,1658,6940,1595z"/>
	<path class="st0" d="M7260,8430c0-5,5-10,10-10c6,0,10,5,10,10c0,6-4,10-10,10C7265,8440,7260,8436,7260,8430z"/>
	<path class="st0" d="M3288,8269c-21-11-38-24-38-29c0-7,123-179,157-219c6-8,78,38,75,49c-3,14-146,220-152,219
		C3327,8289,3308,8280,3288,8269z"/>
	<path class="st0" d="M6256,7918c-31-108-66-243-66-256c0-7,21-22,48-33c26-12,93-43,149-70s105-49,108-49c6,0,145,276,145,289
		c0,16-324,171-358,171C6276,7970,6264,7946,6256,7918z"/>
	<path class="st0" d="M4620,7948c-30-5-58-13-62-16c-4-4-1-52,7-107c7-55,16-130,19-166l6-66l-61-17c-355-100-624-250-934-520
		l-40-35l46-46l46-47l104,82c268,210,458,308,759,393c69,19,142,38,163,41l37,7v254c0,237-1,255-17,254
		C4683,7958,4650,7953,4620,7948z"/>
	<path class="st0" d="M8284,7404c-49-42-106-91-126-110l-37-33l57-81c32-45,66-94,75-110l17-29l-61-46l-60-47l-16,22
		c-31,44-135,170-140,170c-7,0-28-20-275-249c-153-142-175-166-165-181c7-9,33-40,58-69l46-52l34,32c19,17,67,59,108,92
		c58,48,77,58,90,50c52-32,286-432,350-598c15-38,21-46,26-32c4,9,11,17,16,17c4,0,6-7,3-15c-7-17,7-20,22-5c8,8,14,7,23-3
		c9-12,6-14-21-13c-18,0-33-3-33-9c0-5,3-9,8-8c4,2,7-2,7-7c0-6,4-10,10-10c5,0,7,7,4,15c-4,8-2,15,4,15c15,0,22-26,9-39
		c-8-8-8-11,1-11c7,0,12,4,12,10c0,5,7,7,15,4c8-4,15-1,15,5s-4,11-10,11c-5,0-10,5-10,11c0,5,4,8,9,5c5-4,7,3,4,14s-10,20-15,20
		s-7,4-3,10c5,9-77,226-110,290l-15,29l47,28c27,15,86,53,133,84s152,95,233,143c82,48,151,94,154,102c8,21-76,157-93,150
		s-213-138-392-263c-72-51-137-93-142-93s-30,30-55,68c-39,58-43,68-30,77c9,6,96,66,194,135s214,150,259,180s81,60,82,66
		c0,26-194,324-216,331C8378,7479,8333,7446,8284,7404z"/>
	<path class="st0" d="M8632,6527c-145-88-201-126-198-137c3-8,26-71,51-140c43-115,111-348,103-355s-121-45-133-45c-8,0-15,6-15,14
		s-5,16-11,18c-9,3-16,23-19,58c0,12-3,11-11-3c-5-9-7-22-3-29c5-7,3-8-5-4c-7,5-10,14-7,22s1,14-4,14c-6,0-10-6-11-12
		c0-7-2-24-5-37c-4-20-2-22,11-11s13,8,4-19c-6-18-15-28-22-24s-8,0-3-12c10-26,51-205,66-288c7-37,16-69,20-72c9-5,532,11,658,21
		l82,6v29c0,106-110,623-138,651c-7,7-191-68-208-85c-3-3,6-47,20-98c27-102,58-277,51-289c-7-11-132-33-144-25c-6,3-11,14-11,24
		c0,15-91,384-115,466c-5,17,4,25,52,47c236,110,293,139,293,147c0,11-86,224-106,263c-8,15-20,28-27,28
		C8841,6650,8744,6595,8632,6527z"/>
	<path class="st0" d="M1301,6542c-24-45-92-228-124-337c-57-187-124-499-142-656l-7-56l39-6c21-4,62-7,91-7c57,0,544-48,550-54
		c2-2-6-67-17-144c-12-77-21-145-21-151c0-7,39-11,123-11c177,0,163,12,159-138c-4-152,12-426,34-572c30-205,117-506,197-685
		s216-403,310-510l44-49l51,43l51,43l-78,97c-185,227-314,485-406,811c-99,348-120,828-54,1195c12,66,22,131,23,144
		c1,28,36,19-424,110c-146,28-289,56-317,62c-29,6-54,13-56,17c-5,9,64,285,96,389c14,43,48,136,76,207c29,71,51,130,49,131
		c-2,2-56,35-120,74C1323,6552,1309,6557,1301,6542z"/>
	<path class="st0" d="M7743,6495c0-8,4-15,9-15c4,0,8,7,8,15s-4,15-8,15C7747,6510,7743,6503,7743,6495z"/>
	<path class="st0" d="M7770,6480c0-5,5-10,11-10c5,0,7,5,4,10c-3,6-8,10-11,10C7772,6490,7770,6486,7770,6480z"/>
	<path class="st0" d="M7836,6444c-9-24-2-26,12-4c7,11,8,20,3,20S7839,6453,7836,6444z"/>
	<path class="st0" d="M7780,6430c0-3,4-11,9-19c7-11,11-10,19,6c9,15,7,19-9,19C7789,6436,7780,6433,7780,6430z"/>
	<path class="st0" d="M7860,6431c0-12,29-23,41-15c5,3,9,11,9,17c0,8-3,8-9-2c-6-9-11-10-15-2C7877,6442,7860,6444,7860,6431z"/>
	<path class="st0" d="M7910,6400c0-5,5-10,11-10c5,0,7,5,4,10c-3,6-8,10-11,10C7912,6410,7910,6406,7910,6400z"/>
	<path class="st0" d="M8276,6067c3-10,9-15,12-12s0,11-7,18C8271,6082,8270,6081,8276,6067z"/>
	<path class="st0" d="M8330,6051c0-5,7-12,16-15c21-8,24-8,24,5c0,5-4,7-10,4c-5-3-10-1-10,4c0,6-4,11-10,11
		C8335,6060,8330,6056,8330,6051z"/>
	<path class="st0" d="M8300,6039c0-5,5-7,10-4c6,3,10,8,10,11c0,2-4,4-10,4C8305,6050,8300,6045,8300,6039z"/>
	<path class="st0" d="M8320,6020c0-5-8-7-17-3c-15,5-16,3-5-8c6-7,12-23,12-36c0-14,6-23,15-23c8,0,15,5,15,10c0,6-5,10-11,10
		c-7,0-9,11-5,30c3,17,3,30,1,30C8322,6030,8320,6026,8320,6020z"/>
	<path class="st0" d="M8336,6004c-8-21-8-24,5-24c5,0,7,5,4,10c-3,6-1,10,4,10c6,0,11,5,11,10C8360,6026,8343,6022,8336,6004z"/>
	<path class="st0" d="M8375,6009c-4-6-5-12-2-15c2-3,7,2,10,11C8390,6022,8384,6025,8375,6009z"/>
	<path class="st0" d="M8325,5920c3-5,13-10,21-10s12,5,9,10c-3,6-13,10-21,10S8322,5926,8325,5920z"/>
	<path class="st0" d="M8330,5890c0-5,5-10,10-10c6,0,10,5,10,10c0,6-4,10-10,10C8335,5900,8330,5896,8330,5890z"/>
	<path class="st0" d="M1008,5304c-5-4-8-96-8-205c0-148,3-198,13-201c16-7,448,0,454,6c10,10,6,58-7,81c-11,20-11,27,0,40
		c7,8,10,18,6,22c-3,3-6,1-6-7c0-10-3-10-16,1c-13,10-17,10-26-2c-8-11-9-10-4,5c4,10,2,24-4,31c-7,8-4,17,11,31c22,19,22,19,9-2
		c-12-19-11-24,3-39c15-15,18-15,23-1c3,9,10,13,15,10s6,2,3,11c-5,12-10,13-17,6c-6-6-15-11-20-11c-14,0,24,34,41,36
		c25,4,29,16,35,91c5,62,3,73-11,77c-9,2-78,7-152,10c-74,4-180,9-235,12S1012,5308,1008,5304z M1394,5045c-4-8-8-15-10-15
		s-4,7-4,15s4,15,10,15C1395,5060,1397,5053,1394,5045z M1400,4996c0-3-4-8-10-11c-5-3-10-1-10,4c0,6,5,11,10,11
		C1396,5000,1400,4998,1400,4996z M1454,4974c7-19,2-18-19,6c-16,17-16,20-3,15C1441,4991,1451,4982,1454,4974z"/>
	<path class="st0" d="M8351,3739c-6-13-21-52-34-87l-25-62l88-45c66-32,91-41,98-32c16,21,75,178,69,184c-7,6-132,53-164,60
		C8366,3761,8358,3756,8351,3739z"/>
	<path class="st0" d="M3497,3643c-11-11-8-20,7-20c8,0,12,6,9,14C3507,3652,3506,3652,3497,3643z"/>
	<path class="st0" d="M3405,3582c-3-3-5-12-5-21c0-14,2-14,10-1c9,13,11,13,20,0c6-9,10-10,10-3c0,6,8,13,18,15c10,3,4,6-16,9
		C3425,3584,3408,3584,3405,3582z"/>
	<path class="st0" d="M3425,3530c3-5,8-10,11-10c2,0,4,5,4,10c0,6-5,10-11,10C3424,3540,3422,3536,3425,3530z"/>
	<path class="st0" d="M2958,2826c-126-122-228-224-228-227s33-35,74-72l73-66l78,91c43,50,130,152,193,227s122,144,130,154
		c14,16,13,20-14,48c-16,17-40,39-54,49l-25,17L2958,2826z"/>
	<path class="st0" d="M4525,2871l-35-71l25-10c93-35,340-79,448-80h47v70c0,39-2,70-4,70c-47,0-256,36-322,56c-49,15-97,28-106,31
		C4565,2941,4553,2925,4525,2871z"/>
	<path class="st0" d="M3220,2589c-167-200-199-243-187-252c302-243,632-423,1010-554c196-67,531-143,633-143h34l-2,283l-3,282l-37,3
		c-36,3-36,3-52-50c-8-29-27-104-42-166c-16-69-32-116-40-119c-16-6-214,36-340,73c-144,41-284,97-431,170l-141,70l-22-38
		c-12-21-24-38-28-37c-14,1-175,114-179,125c-2,6,16,35,40,65c44,54,237,333,237,342c0,3-24,22-52,43c-29,21-83,62-119,91
		s-69,53-72,53S3331,2722,3220,2589z"/>
	<path class="st0" d="M2726,1773l-88-97l29-24c24-19,264-184,299-204c11-7,25,11,146,198c5,7-28,36-85,74c-51,35-116,83-145,107
		c-30,24-57,43-61,43S2774,1826,2726,1773z"/>
	<path class="st0" d="M3895,6083c-31-7-40-21-11-16c15,3,29,9,32,14s4,8,2,8C3916,6088,3906,6086,3895,6083z"/>
	<path class="st0" d="M5040,5012c-25-26-79-82-120-124l-74-77l124-126l124-125l123,122c68,68,123,127,123,133c0,13-232,245-245,245
		C5090,5059,5065,5038,5040,5012z"/>
	<path class="st0" d="M6660,3923c-42-43-93-97-114-119l-38-42l36-38l36-39l87,90c49,50,101,105,117,123l30,32l-34,35
		c-19,19-37,35-40,35S6701,3965,6660,3923z"/>
</g>
</svg>
