<svg id="Calque_1" data-name="Calque 1" xmlns="http://www.w3.org/2000/svg" viewBox="0 0 890.64 898.69"><defs><style>.cls-1{fill:#fff;}</style></defs><path class="cls-1" d="M471,76.5A472.63,472.63,0,0,0,368,98.9C295.2,123.6,233.9,164.8,177.5,227c-20.1,22.3-34.2,41.2-48.2,65C91.6,356,72.2,415.3,65.9,485.5c-1.6,18.1-1.3,69.5.5,88a429.07,429.07,0,0,0,56.2,175.6A451.48,451.48,0,0,0,293.5,917.5c14.7,8.1,16.1,8.8,40,19.2,58,25.2,114.8,37.3,175.1,37.3,36.3,0,56.2-1.8,88.4-8.1,90.8-17.8,172.1-62,234.2-127.4,29.2-30.7,44.2-50,61.5-79,31.6-53.1,51.3-110.6,60.5-176.8,2-14.6,2.3-20.2,2.3-57.7,0-42.5-.1-44.3-4.6-73.5-7.4-47.5-29.1-107.3-55.7-153A448.52,448.52,0,0,0,806,188.8c-14.1-12.6-40.4-33.2-50.5-39.5-44-27.6-66.6-38.9-100.5-50.5C623.8,88.2,596.1,82,562.5,77.9,540.3,75.2,492.4,74.4,471,76.5Zm82.3,18c75.2,8,142,33,201.2,75.4,22.8,16.4,37.1,28.5,58.1,49.5,37.3,37.4,58.6,67.7,83.3,118.8,17.5,36,31.1,76.3,35.9,106.3,5.9,36.2,6.7,45.9,6.6,80,0,33.6-.9,45.4-6,76-7.3,43.2-19.4,80.6-38.9,119.5-4.4,8.7-14.9,27.7-16,28.8-.1.2-2.9-1.5-6.1-3.8l-5.9-4.1-2.4,2.8c-1.3,1.5-3.7,4.3-5.3,6.1l-2.8,3.3-6.8-5.9C837.6,738,832.7,734,831.9,734c-.4,0-3.9,5.1-7.8,11.3a256.12,256.12,0,0,1-15.3,21.3c-11,13.3-25,28.4-26.4,28.4-1,0-30.5-30.3-34.3-35.2-1.1-1.5-.1-3,8.8-12.5,27.2-29,49.7-68.1,64.6-112.1,1.6-4.8,3.3-8.2,4.1-8.2s7.6,1.8,15.3,3.9,15.5,4.3,17.4,4.6l3.5.7,1.9-6.1,2-6.1-3.6-.9c-2-.6-6.6-1.7-10.3-2.7-4.1-1-6.8-2.2-6.8-2.9,0-2.2,2.3-11.9,3-12.8.3-.4,4.2-.1,8.6.8,12.6,2.4,11.8,2.8,13.9-7.1,1-4.9,1.4-8.9.9-9.4s-10.5-1.8-22.1-3.1L828,583.6v-3.1c0-1.6.5-7.3,1.1-12.5s1.3-19.9,1.7-32.5l.7-23,29.3-.3L890,512v7.9c0,7.7-.1,7.9-2.6,8.5-1.5.4-10.7.6-20.6.5s-18,0-18.2.2-.6,9-.9,19.5l-.5,19.2,5.1.6c2.9.3,12.8,1.1,22.1,1.8l16.9,1.2-.7,8.6c-2.3,30-12.8,68.3-28.1,102.4-8.6,19-6.2,18.2-24.4,7.6-8.4-4.9-15.6-9-16-9s-3.1,5.3-6.2,11.8c-9.1,18.8-23.7,41.1-38.6,59l-6.3,7.6,4.7,4.8c2.6,2.6,5,4.8,5.4,4.8,1.2,0,11.9-11.6,18.2-19.8a397.36,397.36,0,0,0,23.6-35.5c1.8-3.1,3.5-5.7,3.8-5.7s8.6,6.1,18.4,13.5S863.3,735,863.9,735c2.3,0,19.3-33,27.5-53.3,6.7-16.6,9-23.2,13.2-38.1a459.17,459.17,0,0,0,14.9-82.9l.7-8.7H874V535.3l12.2-.6c6.6-.4,17-.7,23-.7H920V492.9l-15.7.6c-20,.7-72.3,2.5-74.4,2.5-1.2,0-1.8-1.4-2.3-6.3-1.1-11.2-4.6-27.9-9.1-43.7-7.1-24.8-21.6-59.1-23.6-55.9-.6,1-.8.6-.7-1.1s-.1-2.4-1.1-2.2a4.13,4.13,0,0,1-3.1-1.3c-1.7-1.5-1.9-1.5-2.8.2-.6,1-1.4,1.5-1.8,1.1s-.1-1.4.6-2.3.8-1.5.2-1.5a2.14,2.14,0,0,0-1.6,1.2c-.5,1-.7,1-1.2,0s-.9-1-2-.1c-1.9,1.6-1.8,3.3.2,2.5,1.2-.5,1.5-.2,1,.9-.3.9,2.2,6.8,5.9,13.9A264.65,264.65,0,0,1,817.9,498c3.8,34.9,1.9,65.2-6.4,103-15.8,71.9-52.2,125.7-124.9,184.3-8.7,7-16.3,12.7-16.9,12.7s-5.8-6.6-11.5-14.5L647.9,769l-4.4,3-4.3,3,14.1,23.5c7.8,12.9,14.6,23.5,15.1,23.5,2,0,22.7-13.1,34.3-21.9l12.6-9.5,2.1,2.6c25.9,31.4,57.6,70.9,57.6,72,0,2.2-35.2,26.4-54.5,37.3C672,930,613.9,948,552.8,954.5c-17.2,1.8-62.1,2-77.9.5-45.5-4.6-83-13.7-124.5-30.4C310,908.4,274,888,244.6,864.6c-11.4-9-36.2-31.4-45.1-40.6l-6-6.2,43-42.5c49.2-48.7,81.4-79.5,82.6-79.1.4.2,8.8,7.4,18.7,16.1s25.6,21.9,35,29.5,17.2,14,17.4,14.4-4.2,7.8-9.7,16.4-10,15.9-10,16.2,3.8,2.7,8.5,5.4c9.4,5.4,33.7,15.1,47.5,19.1,14.9,4.3,12.9,5.6,19.2-12.8,3.1-8.8,5.9-16.4,6.4-16.9.7-.7,31.1,2.6,35.7,4,.9.3,1.2,10.3,1.2,45.8,0,25-.4,45.7-.9,46-1.1.7-21.3-1-33.6-3-40.8-6.3-95.3-27.1-132.2-50.5-17.6-11.1-40.8-29.3-54.8-43l-7-6.9-20.3,20.1c-11.1,11.1-20.2,20.6-20.2,21.2,0,1.4,9.1,10.7,10.3,10.7.5,0,2.7-2,4.9-4.5s4.4-4.5,4.9-4.5,4.9,3.4,9.8,7.5,9.3,7.5,9.9,7.5,4.9-4.5,9.8-10,9.3-10,9.8-10,5.9,3.7,12,8.3A380.74,380.74,0,0,0,325.7,846c6.3,3.9,10,6.7,9.5,7.4-9.7,15.5-20.2,33.2-20.2,34.2s27.8,16,28.4,15.2c.1-.1,4.2-8.3,9-18s9-17.8,9.4-17.8,6.4,2.5,13.2,5.6c35.1,15.9,80.6,26.5,118,27.5l7.5.2V771.5L489,770.4c-15.1-1.5-26.3-3.7-38-7.3a93,93,0,0,0-9.6-2.8c-.1.1-3.5,7.4-7.4,16.2s-7.5,16.3-7.9,16.7c-.6.6-14.9-4.7-16.4-6.2-1.4-1.2,35.2-73.1,39.3-77.4.4-.4,5.5.8,11.2,2.9,15.3,5.4,26.1,7.5,43.8,8.1,23.3,1,44.1-2.4,59.3-9.5a50.84,50.84,0,0,1,7.5-3.1c.7,0,9.6,10.6,11.6,13.8.5.8-.5,1.7-3.1,2.8-2.1.8-5.2,2.1-6.8,2.9-10,4.6-31,9.6-46.2,11.1l-7.3.7v161l15.8-.6c15.4-.6,47.7-5,49.6-6.7,1.1-1.1-3.5-18-4.9-18-.5,0-6.8.9-14,1.9-19.9,2.9-32.5,3.7-33.6,2s-1.2-88.8-.3-110l.7-14.9h3c11.3,0,44.6-9.5,61.2-17.5,14.4-6.9,14.4-4.8-.6-21.5-22.8-25.2-22-24.4-24.1-23.1-1.1.7-6.1,3.4-11.2,6.1l-9.2,5-7-7.8c-10.6-11.8-16.4-18.8-16.4-19.9,0-.5,4.9-5.8,10.9-11.6l11-10.7h9c6.1,0,9.1.4,9.1,1.1s-3.3,5-7.2,9.6c-11.9,13.9-11.2,12.5-7.9,15.7l2.9,2.8,8.5-7.6c4.7-4.2,9-7.6,9.5-7.6,1.2,0,22.1,21.6,38.1,39.3,6.8,7.5,12.7,13.7,13.1,13.7s3.7-2.3,7.4-5.1l6.7-5-18.3-19C598.1,667.4,587,655.3,587,654c0-.6,4.3-1,10.6-1h10.6l24.7,25.2c13.6,13.9,26.2,26.9,27.9,28.9l3.1,3.6-7.7,7c-29.9,27-62.7,43.6-101.4,51.3l-5.8,1.1v91l6.3-.7c3.4-.3,13.4-1.9,22.1-3.5s16.1-2.8,16.2-2.6,8.1,30.8,10.9,42.5c1.3,5.1,2,9.4,1.6,9.7-3.6,2.2-38.5,8.3-60.6,10.6-15.2,1.6-54.6,1.6-69,0-14.2-1.6-43.1-6.6-52.7-9.1-12.1-3.2-38.8-12-45.7-15.1a43.85,43.85,0,0,0-7.5-2.9c-.9,0-10.6,16.8-10.6,18.5,0,1.1,13.4,6.1,36,13.3,15.6,5,40.2,10.1,66,13.7,15.7,2.2,65.8,3.2,82.8,1.6,48.2-4.6,95.6-16.5,134.1-33.8,12-5.3,32.3-15.9,40.6-21.1,12.7-7.9,29.5-19.4,29.5-20.2,0-.5-2.8-4.4-6.3-8.7s-11.4-14.4-17.6-22.5S713.3,816,712.8,816s-2.9,1.4-5.2,3.2-4.3,3.3-4.5,3.4c-.3.3,5.2,8.4,18.6,27.2,3.4,4.8,6.3,9.2,6.3,9.8,0,1.2-12.8,9.4-14.7,9.4-.6,0-1.4-.8-1.8-1.7s-5.6-9.3-11.7-18.5l-11-16.8-4.2,2.6c-5.9,3.6-27.6,14.1-37,18-4.5,1.8-8,3.6-7.9,4.1s2.9,8.8,6.2,18.6S652,893.5,652,894c0,.8-13.2,6-15.3,6-1.1,0-17.7-49.2-18-53.5-.2-1.1,2.6-2.6,9.8-5.4,11.3-4.3,23.5-9.7,23.5-10.5a62.47,62.47,0,0,0-3.5-5.7,41.22,41.22,0,0,1-3.5-6.1c0-1.6-4-.7-10.7,2.3a260,260,0,0,1-43.1,15c-8.4,2.1-15.9,3.9-16.6,3.9s-1.8-2.3-2.5-6.3c-.7-3.4-1.5-7.2-1.8-8.4-.4-1.9.2-2.3,7.4-3.8A260.23,260.23,0,0,0,628.5,805l6.6-3-4-7.1a72,72,0,0,0-5.8-9.5l-1.8-2.3-7.4,3.5c-13.7,6.4-44.8,16.3-46.1,14.6-1.5-1.7-4-16.6-2.9-17.3a41.53,41.53,0,0,1,6.7-1.8c8.3-1.8,22.2-6.7,34.3-12.1,34.4-15.3,75.9-47.7,106.1-82.8l9.5-11.2-9.6-9.4-9.6-9.5,5.5-5.6c3-3,6.1-5.4,6.8-5.3,1.7.4,29,26,29.1,27.4.1,1.6-21.1,28.8-30.5,39.1-8.7,9.6-29.3,27.9-40.9,36.5-4.4,3.3-9.1,6.8-10.4,7.8l-2.3,1.8,5.6,7.1c3.1,3.9,5.9,7.1,6.2,7.1,1.3,0,18.1-13.8,28.9-23.6,30.5-27.8,55.4-60.2,71.4-92.7,11.1-22.5,17.5-43.3,23.5-75.7,9-49.2,4.1-103.9-13.1-146.5C779.5,422.7,772.9,409,772,409c-.3,0-.5,51.2-.5,113.7V636.5l-17.2.3-17.2.2-.6-5.2c-.4-2.9-.5-41.6-.3-86.1s.1-80.7-.2-80.7-2.4,3-4.7,6.7c-44.8,74.1-57.1,93.8-58.5,93.8-2,0-15.1-20.6-56.4-88.4-3.8-6.3-7.4-11.6-7.9-11.8-.7-.2-.9,29.7-.6,85.6l.3,85.8-5.8.6a132.43,132.43,0,0,1-17.2.2c-6.2-.3-11.8-.5-12.3-.5s-1-45.4-1.1-115.1l-.3-115.2-5.5-2.8a169.44,169.44,0,0,0-16.3-6.4c-9.2-3.1-11.1-3.4-12.5-2.3-.9.7-7.2,6.9-13.9,13.8l-12.2,12.5-9.5-9.4-9.5-9.4-20.5,19.7c-11.3,10.9-21,19.6-21.5,19.4-1.8-.6-68.1-66.1-68.1-67.2,0-.6,2.5-3.3,5.5-5.9,5.1-4.5,5.6-4.7,7.6-3.4,1.1.8,8.7,8,16.9,16l14.8,14.5,3.3-3.4,3.3-3.5-25-25-25-25-9.3,7.6c-5.1,4.1-9.6,7.5-10.1,7.5s-7.9-7.3-16.5-16.2l-15.8-16.3,9.9-9.4A323.1,323.1,0,0,1,379,281.6c4.7-3.3,8.7-6.1,8.9-6.2s-3.1-6.2-7.3-13.4-7.6-13.3-7.6-13.6,10.6-6,15.1-8.2c.4-.2,3.7,5.1,7.4,11.7s7.1,12.3,7.6,12.7c1.2.7,7.4-1.3,8.7-2.9.7-.9-.2-4.7-3-12.7-6.1-17.5-6.2-16.5,1.3-18.8,3.5-1.1,7.2-2.3,8.1-2.7,1.4-.6,2.3,1.4,5.9,12.7,2.4,7.3,4.3,13.4,4.4,13.6a32.49,32.49,0,0,0,6.1-1.1l5.9-1.3-.3-3.4c-.2-1.9-2.2-12.3-4.5-23-4.9-22.7-2.4-20.9-20.7-15.3-24.1,7.3-50.5,19.5-68.8,31.9-5.6,3.8-11.6,7.6-13.2,8.5l-3,1.6,2.1,2.7c1.1,1.4,1.9,3,1.7,3.5a71.74,71.74,0,0,1-7.4,6.7c-3.9,3.3-9.4,8.1-12.3,10.7l-5.3,4.7,10.6,11.1c5.8,6.2,10.6,11.7,10.5,12.3s-2.4,3.2-5.3,5.8l-5.2,4.7-17.2-17.2L285,279.6l12.2-12.3,12.1-12.2-2.5-3.3c-1.4-1.8-7.1-8.5-12.7-14.8S284,225.2,284,224.7c0-1.9-3.1-.1-9.5,5.8l-6.9,6.4,7.2,7.4c4,4.1,7.2,7.9,7.2,8.5s-2.3,3.1-5.1,5.6l-5.1,4.6-5.9-5.1c-3.2-2.9-9.5-9.2-14-14.1-6.8-7.5-7.9-9.1-6.8-10.4,2.4-3,23.6-20.2,32.2-26.4,4.8-3.4,9.4-5.9,10.1-5.7s6.7,7.1,13.2,15.2,12.7,15.7,13.7,16.9l1.7,2.1,2.5-2.8c1.4-1.6,3-2.5,3.5-2.2s1-.5,1-1.9-.5-2.8-1-3.1c-1.2-.7-22-30.5-22-31.4s20.4-12.7,31.4-18.5c5.6-2.9,7.2-3.4,8.2-2.4.8.9,23.4,34.1,24.9,36.5,0,.1,6.4-2.4,14-5.6,12.9-5.4,25.1-9.5,44.5-15,8.9-2.5,22.1-5.3,22.7-4.8.1.2,1.3,6.2,2.4,13.3s2.6,13.4,3.1,14c.6.8,2.1.9,4.6.4,2-.4,6.3-1.1,9.5-1.5l5.7-.6v-24c0-22.4-.1-24-1.7-23.5-1,.2-4.3.8-7.3,1.1-6.4.8-22.6,4-42.8,8.5-7.9,1.8-14.5,3-14.7,2.8-1.1-1-8.5-27-8-27.8s15.8-6,17.6-6c.3,0,.6,1.4.7,3.1a8.3,8.3,0,0,0,1,4.2,6.09,6.09,0,0,1,.7,3.5c-.1,1.9.2,2.2,2.4,1.7,21.4-4.3,33.3-6.5,41.3-7.5l9.7-1.2.3-7.7.3-7.6,9.1-.3,9.2-.3.1,82c.2,77.8.1,82-1.6,82.9-1,.5-4.9,1.2-8.7,1.6-21.5,2.1-52.3,13.7-71.3,26.8-4,2.8-7.7,5.5-8.2,6.2-.8,1,6.2,8.5,27.3,29.5,15.6,15.6,28.9,29.3,29.6,30.6,1.2,2.3.8,2.8-6.9,10.1-4.4,4.2-8.1,8.2-8.1,8.9s2.3,3.4,5.1,6l5.1,4.7,9.6-9.4c19.7-19,30.5-28.8,31.9-28.8.3,0,4.5,3.8,9.2,8.5l8.7,8.5,10.9-11c8.5-8.5,11.6-11,13.6-11,3.8,0,18.7,4.5,28.8,8.6,15,6.2,29.2,15.6,49.6,32.9,13.5,11.5,22.1,22,35,43,17.3,28.4,23.5,37.6,24.5,37,.5-.3,4.2-6.1,8.2-12.8,15-25.5,26.3-44.4,29.5-49.5,3.6-5.6,12.2-13.1,27.5-24,12-8.5,24.7-18.5,24.8-19.4s-11.2-14.9-22.8-28.1L729.9,351l11.3-10.8c6.2-6,20.3-19.1,31.2-29.3,42.7-39.5,54.1-50.1,54.4-50.9.2-.4-2-3.3-4.9-6.4l-5.2-5.7-6.1,5.8c-20.3,19.2-92,88-96.5,92.6l-5.3,5.5,13.6,15.1c7.4,8.4,14.4,16.5,15.5,18l2,2.8-12.6,10.9c-6.9,6-19.4,16.5-27.7,23.4s-18.7,15.5-23,19.2-8.4,6.8-9,6.8-3.6-2.8-6.6-6.1l-5.4-6.2,3-2.1c7.7-5.6,45.2-35.8,57.7-46.6,1.8-1.5-30.2-36.4-44.7-48.7-5.6-4.8-10.7-9.2-11.5-9.9-1.2-1.1-.5-2.4,4.3-8.3l5.8-7.1,2.7,2.1c1.4,1.1,7.4,6.5,13.3,12s10.9,9.9,11.3,9.9,2.6-1.7,4.9-3.8c8.5-7.4,61.5-58.2,81.6-78L804.5,235l-9-8.6c-4.9-4.8-14.2-13-20.5-18.3-14.9-12.4-43.3-32.8-43.8-31.3-.2.6-1.1.8-2,.5-1.3-.4-1.4-.2-.4.5s1.1,1.8.6,3.6c-.5,2-1.1,2.5-2.5,2.1-1.1-.4-1.9-.2-1.9.5s.4.9.9.5c1-.6,2.6,1.3,1.8,2.1-.2.2-1.7,0-3.3-.6-2.2-.9-2.6-.9-1.7.1a2.62,2.62,0,0,1,.6,2.5c-.3.8,0,1.4.7,1.4s.8-.5.5-1-.1-1,.4-1c1.4,0,1.4.6,0,3.2-1,1.8-.8,2.4.7,3.6,4.7,3.6-3.2-.3-15.1-7.4-14.2-8.5-13.6-6.8-5.9-17.9l4.5-6.4-5.3-3.4c-6.8-4.4-22.2-12.7-23.4-12.7-.5,0-2.7,4.1-4.9,9.1s-4.3,9.3-4.8,9.6c-1.2.8-14.7-5-14.7-6.3a68,68,0,0,1,3.2-9.8c2.1-5.9,2.8-9,2.1-9.7-3-3-42.3-15.1-64.3-19.8-22.6-4.8-45.6-8-64.2-8.8l-13.8-.6V275.8l9.8.6c20.2,1.4,34.2,3.6,47.9,7.6,7.6,2.2,14.3,4,14.8,4s2.2-3.6,3.7-7.9l2.6-8-2.7-1c-10.6-4-26.4-7.7-41.1-9.6-6.9-.9-14.7-1.9-17.5-2.3l-5-.7-.3-64.3c-.2-56.8,0-64.3,1.3-64.8,3.5-1.4,44.3,4.3,60.2,8.3,5,1.2,6.3,1.9,5.9,3.2-1.4,4.6-4.9,27.3-7.6,49.1-5.5,43.6-4.5,39-7.8,38.9-6.2-.2-13.7-2.4-13.5-3.9.1-.8,1.4-11.9,2.8-24.5s3.2-28.3,4.2-34.8c1.3-9.5,1.4-12,.3-12.7s-23.4-4-26.7-4c-1,0-1.3,10.1-1.3,47v47l2.3.4c1.2.2,6.3,1,11.2,1.6,7.3,1,27.4,5.6,37.1,8.5,1.7.5,2.3.1,2.9-2.2,2.5-9.8,7.8-34.3,10.5-48.8,6.7-35,6.1-33,9.5-32.7,4.7.5,30.7,9.9,45.5,16.4,26.3,11.6,49.8,25.5,68.4,40.5,6,4.8,11.5,9.2,12.2,9.8,1,.7,3.3-1,9.2-6.8,4.2-4.2,8.2-7.7,8.8-7.7s3.3,2.4,6.2,5.3l5.2,5.3-14,13.9c-7.8,7.7-14.2,14.1-14.3,14.2s-2.8-2-5.8-4.8a306.86,306.86,0,0,0-58.7-41.8c-20.7-11.2-49.5-23.4-51.1-21.5-.9,1-5.4,16.5-4.9,16.9a31.44,31.44,0,0,0,4.8,1.8c12.9,4.3,35.2,14.6,49,22.5A253.65,253.65,0,0,1,731.8,271l8.2,8.4-10.7,11c-6,6.1-15.2,15.3-20.5,20.5l-9.7,9.4-7.8-6.9c-4.3-3.8-8.7-7.7-9.7-8.7s-3.5-2.7-5.3-4-3.3-2.6-3.3-3c0-1.2,9-11.7,10-11.7.4,0,3.8,2.5,7.6,5.6l6.8,5.6,8.9-9.1c9-9.1,9-9.1,7.1-11.3-2.5-2.8-30.6-23.8-31.9-23.8-1.1,0-1.5.6-21.1,38.2-7.6,14.7-14.2,26.8-14.5,26.8a48.32,48.32,0,0,1-6.4-3.5,67.12,67.12,0,0,0-6.9-3.8c-.7-.2.8-4.2,3.9-10.5s4.6-10.5,4-11.1a125.34,125.34,0,0,0-11.5-5.6c-5.8-2.6-11.3-5.1-12.3-5.6-1.2-.7-1.9-.6-2.2.3-5.4,15.5-11,30.5-11.6,31.2-.4.5-5.8-.9-12.6-3.3-21-7.3-46-12.1-63.5-12.1H519v33H501V110.7l-14.2.7c-67.2,3.3-141.7,28.4-202.5,68.1-21.9,14.4-51.1,37.9-63,50.8l-4.3,4.6,21.7,20.8C319.4,333.2,336,349.4,336,351c0,.6-6.1,7.3-13.5,15.1s-14.7,15.6-16.1,17.4l-2.5,3.3,6.7,6.3a93.37,93.37,0,0,0,7.9,7.1c.8.5,2.9-1.4,6.1-5.5,6.3-8,16.4-18.7,22.6-23.8l4.8-4.1,6.5,5.8,6.6,5.7-10.9,11.1c-6,6.1-15.2,16.4-20.6,22.9s-10.4,12.1-11.2,12.4-5.2-2.9-11.2-8.2C298.7,405.2,281,387.9,281,387c0-1.2,6.2-8.4,18.9-21.9,6.4-6.8,11.8-13.1,12-14s-3.1-4.9-9.2-10.6c-5.3-5-22.8-21.6-38.9-37s-36-34.3-44.1-41.9l-14.8-13.9-4.9,5.4-4.9,5.4,5.7,5.5c3.2,3,23.3,21.8,44.7,41.6s40.9,38.3,43.3,40.8l4.4,4.6-9.3,10.3c-9.6,10.6-22.9,27.8-22.9,29.6,0,1,10.5,10.5,23,20.6,11.8,9.7,11.2,8.8,10.8,16.3l-.3,6.7,61.2.1c33.7,0,61.5.3,61.8.6s-2.5,3.1-6.2,6.2a95,95,0,0,0-21.8,26l-5,8.5-45,.3-45,.3v38l44.5.5c38,.4,44.5.7,44.2,1.9-1.8,8.4-1.7,24.6.4,35.3l.7,3.8-44.9.2-44.9.3-.3,21.7-.3,21.8h92.7l2.1,4.3c4.4,9.1,9.9,16.5,18,24.4l8.5,8.3-4.8.1c-2.7,0-38.3.2-79.2.5L257,638l-1-2.5c-.6-1.7-1-44-1-115.6,0-89.7-.3-112.9-1.2-112.9-.7,0-2.6,3.1-4.3,6.8s-4.1,9.4-5.6,12.7-3.7,8.7-4.8,11.9-2.4,6.3-2.8,6.6c-.7.7-7.6-1.6-41.6-13.7-7-2.5-12.7-5-12.7-5.5,0-1.6,5.2-13.1,6.5-14.6,1-1.1,2.4-.9,8.1,1.6,3.8,1.7,11.8,4.9,17.8,7.2,10.4,4.1,11,4.2,12.3,2.4a7.3,7.3,0,0,0,1.3-3.3c0-2.7,9.3-22.1,15.8-32.9,3.4-5.7,6.2-10.5,6.2-10.6,0-.6-17-14.6-17.7-14.6-1.9,0-22,32.1-24.5,39-.4,1.2-1.5,1-6-1.4A77.2,77.2,0,0,1,194,394l-2.3-1.7,5.3-9.4c11.2-20,29.2-44.9,32.4-44.9,1.4,0,28.3,21.2,29.8,23.4.4.6,2.8-1.2,5.7-4.4l5-5.5-5.2-5C246.3,328.9,184.9,273,184,273c-.7,0-17,22.8-17,23.7.1.5,2,2.3,4.3,4.1l4.2,3.2,4.3-4.6,4.2-4.6,6.8,5.5c3.7,3.1,7.6,6.4,8.7,7.4,2,1.8,14.7,12.5,15.4,13,.2.1-3,4.4-7.1,9.5-10.9,13.6-19.7,27-30.6,46.8-7.6,13.9-25.2,62.4-23.4,64.2.5.5,3.7,1.3,7.3,1.9,21.7,3.4,72.6,15.8,72.2,17.5,0,.5-1.3,6.7-2.8,13.9-14.8,71.8-3.2,142.3,31.8,192.5,3.7,5.2,8.6,11.7,11.1,14.5l4.4,5,3.4-3.1c1.8-1.6,9.9-9.2,17.9-16.7,18-16.8,18.1-16.9,29.2-7.7,4.1,3.3,7.9,6,8.6,6s.9.5.6,1-.1,1,.4,1,1.1-.7,1.1-1.7.3-1.3.7-.9,1.3-.4,2.1-1.6,1.1-1.6.8-.6c-.4,1.4.3,1.6,4.2,1.5,2.6,0,3.7-.2,2.5-.4-2.7-.5-2.8-1.1-.6-3.5.9-1,1.3-2.1.9-2.5s-1-.2-1.4.4c-.5.8-1,.7-1.8-.2s-.6-1.2,1.6-1.3c2,0,3,.5,3.4,2,.4,1.7.8,1.9,1.9,1,.8-.7,1.8-.8,2.2-.4s.5-.1.2-1.1c-.5-1.2-.2-1.7.7-1.5.7.2,3.2-1.4,5.6-3.5,4.2-3.6,4.4-3.7,6.4-2,6.9,6,8.6,7.7,8.6,8.8,0,.7-4.5,6.4-10,12.8s-10,11.9-10,12.5c0,1.2,16.1,15.4,31.1,27.3l11.4,9.1,2.9-3.4c1.6-1.8,9.1-11.6,16.7-21.8l13.8-18.5-5.9-6c-3.3-3.3-6-6.5-6-7,0-1.3,9.2-10.5,10.5-10.5.6,0,4.6,3.2,9,7A121,121,0,0,0,456,672.5c8.7,5.1,22.2,11.5,24.3,11.5.8,0,4.7-4,8.7-8.9,8.4-10.4,7.9-10.4,16.4-.6l4.7,5.5-4.1,4.8c-2.3,2.6-7.3,8.4-11.2,12.8l-7,8.2L476.5,702a167.58,167.58,0,0,1-20.3-8.5c-5-2.6-9.6-4.4-10.1-4.1s-3.5,4.1-6.5,8.4-12,16.2-20.1,26.7-15,19.7-15.5,20.5c-.7,1.2-1.5.9-4.8-1.3-4.8-3.4-45.8-38.6-64.1-55.1-7.4-6.6-14.3-12.7-15.3-13.4-2-1.4-3.1-.6-34.9,28.3-7.2,6.6-20.3,18.3-28.9,26s-29.1,25.9-45.5,40.5-30,26.6-30.5,26.8c-1.2.4-15.2-16.7-24.4-29.7-6.3-9-20.6-32.3-20.6-33.6,0-.2,7.5-5.4,16.8-11.5s16.9-11.4,17.1-11.6-1.7-4-4.2-8.6c-13.8-25.4-25.1-59.9-30.6-92.8-2.1-12.8-4.6-35.8-3.9-36.5.2-.2,4.1-.5,8.8-.6l8.5-.2.3,4.9c.3,5.4,3.2,30.7,3.5,31.1.2.1,5.2-.4,11.2-1.2s10.9-1.3,11-1.2.7,2.7,1.4,5.7c4,16.2,12.6,40.7,22.5,63.2l1.6,3.6-6.6,3.7c-3.7,2-7.1,3.4-7.7,3.2s-1.9.5-2.9,1.5c-2,2-3.8,2.4-3.8.8,0-.6.8-1,1.9-1,4,0,3.1-5.5-2.7-17.5-2.9-5.8-10.9-28.4-13.1-36.8-1.7-6.5-2.1-7.2-4.2-6.9-4.7.5-4.8.7-3.4,7.4,2.4,11.2,13.6,42.6,15.7,43.9a2.15,2.15,0,0,1,1,1.5c.1,2.1,9.3,22.4,10.1,22.4,1.1,0,7.9-3.2,13.6-6.4,3.5-2,6.7-3.5,7.1-3.4.8.3,18,25.9,18,26.7s-10.7,9.1-11.7,9.1c-.4,0-3-3.2-5.7-7s-5.3-7-5.8-7c-1.1,0-7.6,4.3-26.5,17.3L158,739.1l6.2,9.2c3.4,5.1,8.8,12.6,12.1,16.9l6.1,7.6,10.5-9.6c5.8-5.4,16.2-14.6,23.1-20.6,14.7-12.9,24-21.7,24-22.9,0-.4-2.3-3.5-5-6.8-20.5-24.7-39.8-65.1-48.6-101.8a323,323,0,0,1-7.5-45.4L177.6,552H139.5c-21,0-38.4.2-38.6.4-.6.6.7,18.9,2.1,30.1,5.1,39.3,15.5,77.2,29.4,106.9,2.5,5.5,4.4,10.1,4.2,10.4-1,.9-13.9,8.2-14.6,8.2-.9,0-9.6-19-13.6-29.5C104,666.8,98.3,649,96,640c-22.2-87.4-17.5-185.8,12.7-265.5,3.7-9.7,12.4-28.7,13.9-30.4.3-.4,6.7,3.2,25.1,14.1,7.2,4.3,13.6,7.8,14.2,7.8s2.2-2.1,3.7-4.8a286.19,286.19,0,0,1,18-27.9c4.1-5.6,7.4-10.5,7.4-10.9,0-1-4.1-5.4-5.1-5.4-.4,0-2.9,2.3-5.6,5.1l-4.8,5-15.7-13.3c-8.6-7.3-15.7-13.6-15.7-13.9-.2-1.3,15.8-24.7,23.4-34.4,52.4-67.1,112.7-113.2,185.5-142,22.2-8.7,27.7-10.6,44-15.1,31.6-8.7,54.2-12.7,91-15.8C497.6,91.8,539.2,93,553.3,94.5Zm-179.1,76c7,17.9,7,16.5-.4,19.9-3.5,1.6-6.5,3.1-6.8,3.3-1,.6-14.3-27.5-13.7-29s12.4-6.7,14.7-6.4C368.9,158.4,371.3,163.4,374.2,170.5ZM362.4,264c3.3,1.2,6.6,6.6,6.6,10.8,0,4.8-5.2,10.2-10.7,10.9-3.9.5-4.6.2-7.7-2.9-4.6-4.6-5.3-7.9-3-12.9C350.3,263.8,356,261.5,362.4,264Zm125.9,57.4v7.9l-8.8,1.9c-4.9,1-12.6,3-17.1,4.4l-8.3,2.7,3,4.3c1.6,2.4,3.6,4.4,4.3,4.4a84.25,84.25,0,0,0,9.2-2.4,163.9,163.9,0,0,1,20.3-4.1c50.1-7.1,103.7,12.7,143.4,53,4.1,4.1,6,5.4,7.1,4.8.8-.4,6.4-5.7,12.6-11.7l11.1-10.8-4.8-5.1c-4.2-4.5-22.4-21.3-26.4-24.4-1.3-1.1-2.5-.1-7.9,6.7-3.4,4.4-6.5,8-6.9,8a59.66,59.66,0,0,1-7.6-4.1c-24.2-14.2-47.4-22.9-72.2-26.9l-7.3-1.2V313h2.8c9,0,33.6,5.6,48.3,11.1,8.3,3,22.8,10,27.1,13.1l2.7,1.9,5.7-7.8c3.1-4.3,6-8.2,6.4-8.7,1.2-1.3,15.8,7.8,27.4,17,10.5,8.4,37.6,35,37.6,37,0,.8-37.2,38.5-42.4,42.9-.7.5-2.4,2.1-3.9,3.4l-2.6,2.4-9.3-9.8c-11.6-12.3-26.9-25.9-36.4-32.5s-26.4-14.9-37.9-18.8c-16.7-5.7-23.9-6.7-47-6.7-19.9,0-21.5.2-30.9,2.8-5.4,1.5-12.6,3.8-16,5.2-4.8,1.9-6.3,2.2-7.2,1.2-14.3-15.6-27.4-31.3-27.2-32.5.8-4.2,30.7-16.6,47.4-19.6C488.6,312.4,488.2,312.1,488.3,321.4Zm300.3,67.2c-2.1,2-2.8,1.7-1.4-.5.7-1.1,1.6-1.7,2-1.5S789.4,387.8,788.6,388.6Zm-390.8,30c-.2.1-10.8.5-23.5.9-17,.6-23.3.4-23.3-.4,0-1.5,5.9-8.1,15.4-17.4l8.1-7.8,11.8,12.2C392.7,412.8,397.9,418.4,397.8,418.6Zm129.8,21.3a98,98,0,0,1,15,4.3c6.9,2.8,17.4,9.5,17.4,11.1,0,.7-1.5,2.4-3.4,3.9-4.4,3.5-12.1,13.8-15.7,21-1.6,3.2-3.2,5.8-3.6,5.8s-3.6-1.2-7.1-2.6c-12.8-5.1-32.5-4.3-45.2,1.8-8.8,4.2-21.3,16.8-25.8,25.8-12.6,25.5-8.1,56.8,10.9,75.1a54.84,54.84,0,0,0,39,16c7.7,0,19.1-2.3,24.4-4.9,2.7-1.3,3-1.3,4,.3,5.5,9.2,15.1,23.2,18.5,26.8l4.1,4.5-3.4,2.1c-11.9,7.3-28.1,11.3-46.2,11.3-25,0-42.9-6.1-61.4-20.9-15.8-12.6-28.2-32.1-33.8-52.8-2.4-9-2.7-11.8-2.7-27.5-.1-21.4,1.5-28.5,10.4-46.5,7.3-14.9,13.8-23.5,24.9-33.1C470.1,442.2,499.9,434.2,527.6,439.9Zm10.5,123.6c-11.5,11.5-22.5,22.9-24.5,25.2l-3.8,4.1-24.1-24.5c-13.3-13.5-24.3-24.9-24.5-25.3s10.8-11.8,24.4-25.4l24.7-24.5,24.3,24.7,24.2,24.7ZM377,498.5c0,1.3-4,1.5-30,1.5s-30-.2-30-1.5,4-1.5,30-1.5S377,497.2,377,498.5Zm256.3,64.8a64.66,64.66,0,0,0,5.9,9.8c1.3,1.4,2.3,2.9,2.3,3.4,0,1.3,8.5,15.4,9.6,16.1a2.53,2.53,0,0,1,.9,2c0,1.6-21.6,25.4-23.1,25.4-.5,0-.9-13.1-.9-32,0-17.6.4-32,.8-32S631.3,559.3,633.3,563.3ZM709,585.5c0,12.9-.2,23.5-.5,23.5-.5,0-20.6-20.5-20.9-21.2S707.4,562,708.3,562C708.7,562,709,572.6,709,585.5Zm-18.6,29.4,15.8,15.9-10.3,10.8c-5.7,6-13.6,14.3-17.6,18.4l-7.2,7.5,9,9.4c4.9,5.2,8.9,9.9,8.9,10.4s-2.5,3.4-5.6,6.5l-5.6,5.7-24.9-25.4c-13.7-14-24.8-26.1-24.7-26.8.3-1.3,44.7-48,45.8-48.2C674.3,599,681.7,606.1,690.4,614.9ZM354,657a1,1,0,0,1-1,1,1.08,1.08,0,0,1-1-1,1,1,0,0,1,1-1A.94.94,0,0,1,354,657Zm-8,4.7c0,2.5-1.5,1.2-1.7-1.4-.1-1.9.1-2.2.8-1.2A6.22,6.22,0,0,1,346,661.7Zm58.4,15.2c2.6,2.7,3.1,3.9,3.1,8.2,0,4.6-.4,5.4-3.9,8.6s-4.3,3.5-8.2,3c-5.6-.6-9-2.9-10.8-7.2-2.3-5.5,1-13,6.9-15.6C395.2,672.3,401.1,673.6,404.4,676.9Zm443.2,89.8c6.7,5.4,12.3,10.2,12.3,10.6.1,1.2-12.2,16.7-13.3,16.7-.4,0-3.1-2-5.8-4.5s-5.5-4.5-6.2-4.5-2.7,2.2-4.6,4.7c-8.2,11-48,49.5-50.8,49.2-.4,0-3.1-2.8-6.1-6.2-7.9-9-32.6-36.1-39.8-43.8-3.5-3.6-6.3-7-6.3-7.6s2.7-3.4,5.9-6.2l5.9-5.1,16.4,17.2c9,9.5,18.5,19.5,21,22.2l4.5,5,3.9-3.1c4.9-3.9,22.5-21.8,29.8-30.3,3.1-3.6,8.4-10.4,11.9-15.2s6.8-8.8,7.6-8.8S840.8,761.4,847.6,766.7ZM694,864.5c4,6.3,7.3,12.2,7.4,13.1.1,1.1-2.2,2.8-6.4,5a64,64,0,0,1-7.6,3.4c-.6,0-2.3-2.4-3.9-5.3s-2.9-5.3-3-5.5a59.49,59.49,0,0,0-8.1,3.3c-4.3,2-8.3,3.4-9,3.1-1-.4-6.7-13.6-6.1-14.2s27.4-14.1,28.3-14.2C686.3,853.1,690,858.2,694,864.5Z" transform="translate(-64.86 -75.31)"/><path class="cls-1" d="M726,181a1.08,1.08,0,0,0,1,1,1,1,0,0,0,1-1,.94.94,0,0,0-1-1A1,1,0,0,0,726,181Z" transform="translate(-64.86 -75.31)"/><path class="cls-1" d="M328.8,197.1c-2.1,1.1-3.8,2.4-3.8,2.9,0,.7,12.3,17.9,15.7,21.9.6.8,7.8-3.8,7.5-4.9-.3-1.4-14.6-22-15.2-21.9A24.68,24.68,0,0,0,328.8,197.1Z" transform="translate(-64.86 -75.31)"/><path class="cls-1" d="M625.6,232.2c-3.1,10.8-6.6,24.3-6.6,25.6,0,.7,2.1,2.2,4.8,3.3s9.3,4.3,14.9,7,10.5,4.9,10.8,4.9c.6,0,14.5-27.6,14.5-28.9,0-1.6-32.4-17.1-35.8-17.1C627.6,227,626.4,229.4,625.6,232.2Z" transform="translate(-64.86 -75.31)"/><path class="cls-1" d="M462,229.2a27.36,27.36,0,0,0-6.2,1.6c-.4.4-.1,5.2.7,10.7s1.6,13,1.9,16.6l.6,6.6-6.1,1.7c-35.5,10-62.4,25-93.4,52l-4,3.5,4.6,4.6,4.6,4.7,10.4-8.2c26.8-21,45.8-30.8,75.9-39.3,6.9-1.9,14.2-3.8,16.3-4.1l3.7-.7V253.5c0-23.7-.1-25.5-1.7-25.4C468.3,228.2,465,228.7,462,229.2Z" transform="translate(-64.86 -75.31)"/><path class="cls-1" d="M828.4,283.6c-4.9,4.2-10.6,9.1-12.6,11l-3.7,3.3,5.7,8.1c3.2,4.5,6.6,9.4,7.5,11l1.7,2.9-6.1,4.6-6,4.7-1.6-2.2c-3.1-4.4-13.5-17-14-17-.7,0-2.8,2-27.5,24.9-15.3,14.2-17.5,16.6-16.5,18.1.7.9,3.3,4,5.8,6.9l4.6,5.2,3.4-3.2c1.9-1.7,6.7-5.9,10.8-9.2,5.8-4.8,7.7-5.8,9-5,5.2,3.2,28.6,43.2,35,59.8,1.5,3.8,2.1,4.6,2.6,3.2.4-.9,1.1-1.7,1.6-1.7s.6.7.3,1.5c-.7,1.7.7,2,2.2.5.8-.8,1.4-.7,2.3.3.9,1.2.6,1.4-2.1,1.3-1.8,0-3.3.3-3.3.9s.3.9.8.8.7.2.7.7a.94.94,0,0,0,1,1c.5,0,.7-.7.4-1.5s-.2-1.5.4-1.5c1.5,0,2.2,2.6.9,3.9-.8.8-.8,1.1.1,1.1.7,0,1.2-.4,1.2-1s.7-.7,1.5-.4,1.5.1,1.5-.5a1,1,0,0,0-1-1.1,1.1,1.1,0,0,1-1-1.1.55.55,0,0,1,.9-.5c.5.4.7-.3.4-1.4s-1-2-1.5-2-.7-.4-.3-1c.5-.9-7.7-22.6-11-29l-1.5-2.9,4.7-2.8c2.7-1.5,8.6-5.3,13.3-8.4s15.2-9.5,23.3-14.3,15.1-9.4,15.4-10.2c.8-2.1-7.6-15.7-9.3-15s-21.3,13.8-39.2,26.3c-7.2,5.1-13.7,9.3-14.2,9.3s-3-3-5.5-6.8c-3.9-5.8-4.3-6.8-3-7.7.9-.6,9.6-6.6,19.4-13.5s21.4-15,25.9-18,8.1-6,8.2-6.6c0-2.6-19.4-32.4-21.6-33.1C837.8,276.1,833.3,279.4,828.4,283.6Z" transform="translate(-64.86 -75.31)"/><path class="cls-1" d="M863.2,371.3c-14.5,8.8-20.1,12.6-19.8,13.7.3.8,2.6,7.1,5.1,14,4.3,11.5,11.1,34.8,10.3,35.5s-12.1,4.5-13.3,4.5a1.45,1.45,0,0,1-1.5-1.4,2,2,0,0,0-1.1-1.8c-.9-.3-1.6-2.3-1.9-5.8,0-1.2-.3-1.1-1.1.3a3.39,3.39,0,0,0-.3,2.9c.5.7.3.8-.5.4a1.9,1.9,0,0,1-.7-2.2c.3-.8.1-1.4-.4-1.4s-1,.6-1.1,1.2a21.11,21.11,0,0,1-.5,3.7c-.4,2-.2,2.2,1.1,1.1s1.3-.8.4,1.9c-.6,1.8-1.5,2.8-2.2,2.4s-.8,0-.3,1.2c1,2.6,5.1,20.5,6.6,28.8.7,3.7,1.6,6.9,2,7.2.9.5,53.2-1.1,65.8-2.1l8.2-.6v-2.9c0-10.6-11-62.3-13.8-65.1-.7-.7-19.1,6.8-20.8,8.5-.3.3.6,4.7,2,9.8,2.7,10.2,5.8,27.7,5.1,28.9s-13.2,3.3-14.4,2.5a2.9,2.9,0,0,1-1.1-2.4c0-1.5-9.1-38.4-11.5-46.6-.5-1.7.4-2.5,5.2-4.7,23.6-11,29.3-13.9,29.3-14.7,0-1.1-8.6-22.4-10.6-26.3-.8-1.5-2-2.8-2.7-2.8S874.4,364.5,863.2,371.3Z" transform="translate(-64.86 -75.31)"/><path class="cls-1" d="M130.1,369.8c-2.4,4.5-9.2,22.8-12.4,33.7-5.7,18.7-12.4,49.9-14.2,65.6l-.7,5.6,3.9.6a60.19,60.19,0,0,0,9.1.7c5.7,0,54.4,4.8,55,5.4.2.2-.6,6.7-1.7,14.4s-2.1,14.5-2.1,15.1,3.9,1.1,12.3,1.1c17.7,0,16.3-1.2,15.9,13.8-.4,15.2,1.2,42.6,3.4,57.2,3,20.5,11.7,50.6,19.7,68.5s21.6,40.3,31,51l4.4,4.9,5.1-4.3,5.1-4.3-7.8-9.7c-18.5-22.7-31.4-48.5-40.6-81.1-9.9-34.8-12-82.8-5.4-119.5,1.2-6.6,2.2-13.1,2.3-14.4.1-2.8,3.6-1.9-42.4-11-14.6-2.8-28.9-5.6-31.7-6.2s-5.4-1.3-5.6-1.7c-.5-.9,6.4-28.5,9.6-38.9,1.4-4.3,4.8-13.6,7.6-20.7s5.1-13,4.9-13.1-5.6-3.5-12-7.4C132.3,368.8,130.9,368.3,130.1,369.8Z" transform="translate(-64.86 -75.31)"/><path class="cls-1" d="M774.3,374.5c0,.8.4,1.5.9,1.5s.8-.7.8-1.5-.4-1.5-.8-1.5S774.3,373.7,774.3,374.5Z" transform="translate(-64.86 -75.31)"/><path class="cls-1" d="M777,376a1.1,1.1,0,0,0,1.1,1c.5,0,.7-.5.4-1s-.8-1-1.1-1S777,375.4,777,376Z" transform="translate(-64.86 -75.31)"/><path class="cls-1" d="M783.6,379.6c-.9,2.4-.2,2.6,1.2.4.7-1.1.8-2,.3-2S783.9,378.7,783.6,379.6Z" transform="translate(-64.86 -75.31)"/><path class="cls-1" d="M778,381a5.9,5.9,0,0,0,.9,1.9c.7,1.1,1.1,1,1.9-.6s.7-1.9-.9-1.9C778.9,380.4,778,380.7,778,381Z" transform="translate(-64.86 -75.31)"/><path class="cls-1" d="M786,380.9c0,1.2,2.9,2.3,4.1,1.5a2.23,2.23,0,0,0,.9-1.7c0-.8-.3-.8-.9.2s-1.1,1-1.5.2C787.7,379.8,786,379.6,786,380.9Z" transform="translate(-64.86 -75.31)"/><path class="cls-1" d="M791,384a1.1,1.1,0,0,0,1.1,1c.5,0,.7-.5.4-1s-.8-1-1.1-1S791,383.4,791,384Z" transform="translate(-64.86 -75.31)"/><path class="cls-1" d="M827.6,417.3c.3,1,.9,1.5,1.2,1.2s0-1.1-.7-1.8C827.1,415.8,827,415.9,827.6,417.3Z" transform="translate(-64.86 -75.31)"/><path class="cls-1" d="M833,418.9c0,.5.7,1.2,1.6,1.5,2.1.8,2.4.8,2.4-.5,0-.5-.4-.7-1-.4s-1,.1-1-.4a1,1,0,0,0-1-1.1A1,1,0,0,0,833,418.9Z" transform="translate(-64.86 -75.31)"/><path class="cls-1" d="M830,420.1c0,.5.5.7,1,.4s1-.8,1-1.1-.4-.4-1-.4A1.1,1.1,0,0,0,830,420.1Z" transform="translate(-64.86 -75.31)"/><path class="cls-1" d="M832,422c0,.5-.8.7-1.7.3-1.5-.5-1.6-.3-.5.8a6.43,6.43,0,0,1,1.2,3.6c0,1.4.6,2.3,1.5,2.3s1.5-.5,1.5-1a1,1,0,0,0-1.1-1c-.7,0-.9-1.1-.5-3,.3-1.7.3-3,.1-3S832,421.4,832,422Z" transform="translate(-64.86 -75.31)"/><path class="cls-1" d="M833.6,423.6c-.8,2.1-.8,2.4.5,2.4.5,0,.7-.5.4-1s-.1-1,.4-1a1.1,1.1,0,0,0,1.1-1C836,421.4,834.3,421.8,833.6,423.6Z" transform="translate(-64.86 -75.31)"/><path class="cls-1" d="M837.5,423.1c-.4.6-.5,1.2-.2,1.5s.7-.2,1-1.1C839,421.8,838.4,421.5,837.5,423.1Z" transform="translate(-64.86 -75.31)"/><path class="cls-1" d="M832.5,432a2.82,2.82,0,0,0,2.1,1c.8,0,1.2-.5.9-1a2.52,2.52,0,0,0-2.1-1C832.6,431,832.2,431.4,832.5,432Z" transform="translate(-64.86 -75.31)"/><path class="cls-1" d="M833,435a1.08,1.08,0,0,0,1,1,1,1,0,0,0,1-1,.94.94,0,0,0-1-1A1,1,0,0,0,833,435Z" transform="translate(-64.86 -75.31)"/><path class="cls-1" d="M100.8,493.6c-.5.4-.8,9.6-.8,20.5,0,14.8.3,19.8,1.3,20.1,1.6.7,44.8,0,45.4-.6,1-1,.6-5.8-.7-8.1-1.1-2-1.1-2.7,0-4,.7-.8,1-1.8.6-2.2s-.6-.1-.6.7c0,1-.3,1-1.6-.1s-1.7-1-2.6.2-.9,1-.4-.5a3.35,3.35,0,0,0-.4-3.1c-.7-.8-.4-1.7,1.1-3.1,2.2-1.9,2.2-1.9.9.2-1.2,1.9-1.1,2.4.3,3.9s1.8,1.5,2.3.1c.3-.9,1-1.3,1.5-1s.6-.2.3-1.1c-.5-1.2-1-1.3-1.7-.6a3.67,3.67,0,0,1-2,1.1c-1.4,0,2.4-3.4,4.1-3.6,2.5-.4,2.9-1.6,3.5-9.1.5-6.2.3-7.3-1.1-7.7-.9-.2-7.8-.7-15.2-1s-18-.9-23.5-1.2S101.2,493.2,100.8,493.6Zm38.6,25.9c-.4.8-.8,1.5-1,1.5s-.4-.7-.4-1.5.4-1.5,1-1.5S139.7,518.7,139.4,519.5Zm.6,4.9c0,.3-.4.8-1,1.1s-1,.1-1-.4a1.1,1.1,0,0,1,1-1.1C139.6,524,140,524.2,140,524.4Zm5.4,2.2c.7,1.9.2,1.8-1.9-.6-1.6-1.7-1.6-2-.3-1.5A4.51,4.51,0,0,1,145.4,526.6Z" transform="translate(-64.86 -75.31)"/><path class="cls-1" d="M835.1,650.1c-.6,1.3-2.1,5.2-3.4,8.7l-2.5,6.2,8.8,4.5c6.6,3.2,9.1,4.1,9.8,3.2,1.6-2.1,7.5-17.8,6.9-18.4s-13.2-5.3-16.4-6C836.6,647.9,835.8,648.4,835.1,650.1Z" transform="translate(-64.86 -75.31)"/><path class="cls-1" d="M349.7,659.7c-1.1,1.1-.8,2,.7,2,.8,0,1.2-.6.9-1.4C350.7,658.8,350.6,658.8,349.7,659.7Z" transform="translate(-64.86 -75.31)"/><path class="cls-1" d="M340.5,665.8a3.58,3.58,0,0,0-.5,2.1c0,1.4.2,1.4,1,.1s1.1-1.3,2,0c.6.9,1,1,1,.3s.8-1.3,1.8-1.5.4-.6-1.6-.9A9.18,9.18,0,0,0,340.5,665.8Z" transform="translate(-64.86 -75.31)"/><path class="cls-1" d="M342.5,671c.3.5.8,1,1.1,1s.4-.5.4-1a1,1,0,0,0-1.1-1C342.4,670,342.2,670.4,342.5,671Z" transform="translate(-64.86 -75.31)"/><path class="cls-1" d="M295.8,741.4c-12.6,12.2-22.8,22.4-22.8,22.7s3.3,3.5,7.4,7.2l7.3,6.6,7.8-9.1c4.3-5,13-15.2,19.3-22.7s12.2-14.4,13-15.4c1.4-1.6,1.3-2-1.4-4.8A46,46,0,0,0,321,721l-2.5-1.7Z" transform="translate(-64.86 -75.31)"/><path class="cls-1" d="M452.5,736.9,449,744l2.5,1c9.3,3.5,34,7.9,44.8,8H501v-7c0-3.9-.2-7-.4-7-4.7,0-25.6-3.6-32.2-5.6-4.9-1.5-9.7-2.8-10.6-3.1C456.5,729.9,455.3,731.5,452.5,736.9Z" transform="translate(-64.86 -75.31)"/><path class="cls-1" d="M322,765.1c-16.7,20-19.9,24.3-18.7,25.2,30.2,24.3,63.2,42.3,101,55.4,19.6,6.7,53.1,14.3,63.3,14.3H471l-.2-28.3-.3-28.2-3.7-.3c-3.6-.3-3.6-.3-5.2,5-.8,2.9-2.7,10.4-4.2,16.6-1.6,6.9-3.2,11.6-4,11.9-1.6.6-21.4-3.6-34-7.3a250,250,0,0,1-43.1-17l-14.1-7-2.2,3.8c-1.2,2.1-2.4,3.8-2.8,3.7-1.4-.1-17.5-11.4-17.9-12.5-.2-.6,1.6-3.5,4-6.5,4.4-5.4,23.7-33.3,23.7-34.2,0-.3-2.4-2.2-5.2-4.3s-8.3-6.2-11.9-9.1a60.89,60.89,0,0,0-7.2-5.3C342.4,741,333.1,751.8,322,765.1Z" transform="translate(-64.86 -75.31)"/><path class="cls-1" d="M272.6,846.7l-8.8,9.7,2.9,2.4c2.4,1.9,26.4,18.4,29.9,20.4,1.1.7,2.5-1.1,14.6-19.8.5-.7-2.8-3.6-8.5-7.4-5.1-3.5-11.6-8.3-14.5-10.7s-5.7-4.3-6.1-4.3S277.4,841.4,272.6,846.7Z" transform="translate(-64.86 -75.31)"/><path class="cls-1" d="M389.5,415.7c-3.1.7-4,2.1-1.1,1.6,1.5-.3,2.9-.9,3.2-1.4s.4-.8.2-.8S390.6,415.4,389.5,415.7Z" transform="translate(-64.86 -75.31)"/><path class="cls-1" d="M504,522.8c-2.5,2.6-7.9,8.2-12,12.4l-7.4,7.7L497,555.5,509.4,568l12.3-12.2c6.8-6.8,12.3-12.7,12.3-13.3,0-1.3-23.2-24.5-24.5-24.5C509,518.1,506.5,520.2,504,522.8Z" transform="translate(-64.86 -75.31)"/><path class="cls-1" d="M666,631.7c-4.2,4.3-9.3,9.7-11.4,11.9l-3.8,4.2,3.6,3.8,3.6,3.9,8.7-9c4.9-5,10.1-10.5,11.7-12.3l3-3.2-3.4-3.5a22.11,22.11,0,0,0-4-3.5C673.7,624,670.1,627.5,666,631.7Z" transform="translate(-64.86 -75.31)"/></svg>